<svg width="54" height="48" viewBox="0 0 54 48" fill="none" xmlns="http://www.w3.org/2000/svg">
<g fill="white">
<mask id="path-1-inside-1_113_1068" >
<path d="M53.5773 45.6014L41.0342 33.0946C41.0342 33.0946 41.0914 33.0946 41.0914 33.0375C41.1487 33.0375 41.1487 32.9804 41.206 32.9804C41.2633 32.9804 41.2633 32.9233 41.3205 32.9233C41.3778 32.9233 41.3778 32.8661 41.4351 32.809C41.4924 32.7519 41.4924 32.7519 41.5496 32.6948C41.5496 32.6377 41.6069 32.6377 41.6069 32.5806C41.6069 32.5235 41.6642 32.5235 41.6642 32.4664C41.6642 32.4093 41.7215 32.4093 41.7215 32.3522C41.7215 32.2951 41.7787 32.2951 41.7787 32.238C41.7787 32.1808 41.7787 32.1237 41.7787 32.1237C41.7787 32.0666 41.7787 32.0095 41.7787 31.9524V31.8953V31.8382L52.3173 26.1273C52.89 25.8418 53.0619 25.1565 52.7755 24.5854C52.4891 24.0143 51.8018 23.8429 51.2291 24.1285L41.8933 29.1541V28.0119L52.2027 22.4723C52.6037 22.2439 52.7755 21.7299 52.5464 21.3302C52.3173 20.9304 51.8018 20.7591 51.4009 20.9875L41.9506 26.0702L42.0078 24.5854L52.2027 18.9887C52.6037 18.7603 52.7755 18.2463 52.5464 17.8465C52.3173 17.4468 51.8018 17.2754 51.4009 17.5039L42.0651 22.5294L42.1224 21.0446L52.2027 15.5622C52.6037 15.3337 52.7755 14.8197 52.5464 14.42C52.3173 14.0202 51.8018 13.8489 51.4009 14.0773L42.1224 19.0458L42.1797 17.8465L52.3746 12.3641C52.7755 12.1356 53.0619 11.6788 52.9473 11.2219C52.89 10.765 52.5464 10.3653 52.0309 10.251L33.4739 6.42475C32.5575 6.25342 31.5838 6.36764 30.782 6.82451L21.8471 11.6217C21.5608 11.5645 21.2171 11.6217 20.988 11.793L20.1289 12.2499L8.27302 0.428316C7.70027 -0.142772 6.78387 -0.142772 6.2684 0.428316C5.75293 0.999405 5.69565 1.91315 6.2684 2.42713L17.4943 13.6205L12.0531 16.5901C12.0531 16.5901 11.9959 16.5901 11.9959 16.6472C11.9386 16.6472 11.9386 16.7043 11.8813 16.7043C11.8241 16.7614 11.824 16.7615 11.7668 16.8186C11.7095 16.8186 11.7095 16.8757 11.6522 16.9328C11.595 16.9899 11.595 16.9899 11.5377 17.047C11.5377 17.1041 11.4804 17.1041 11.4804 17.1612C11.4804 17.2183 11.4231 17.2183 11.4231 17.2754L0.5982 23.0434C0.197277 23.2719 -0.089097 23.7287 0.0254525 24.1856C0.0827273 24.6996 0.426376 25.0993 0.941848 25.1565L19.4989 28.9827C19.7852 29.0399 20.0143 29.0399 20.3007 29.0399C20.988 29.0399 21.618 28.8685 22.1908 28.583L28.8919 24.9851L29.6365 25.7275L21.2744 30.2963C20.8735 30.5247 20.358 30.5818 19.8998 30.4676L1.34277 26.6413C0.884574 26.5271 0.426376 26.8697 0.311826 27.3266C0.197277 27.7835 0.540925 28.2403 0.999123 28.3545L19.5561 32.1808C19.7852 32.238 20.0716 32.238 20.3007 32.238C20.9307 32.238 21.5035 32.0666 22.0762 31.7811L30.8965 27.041V28.5259L21.2744 33.7228C20.8735 33.9512 20.358 34.0083 19.8998 33.8941L1.34277 30.0678C0.884574 29.9536 0.426376 30.2962 0.311826 30.7531C0.197277 31.21 0.540925 31.6669 0.999123 31.7811L19.5561 35.6074C19.7852 35.6645 20.0716 35.6645 20.3007 35.6645C20.9307 35.6645 21.5035 35.4932 22.0762 35.2076L30.8965 30.4676V31.9524L21.2744 37.1493C20.8735 37.3778 20.358 37.4349 19.8998 37.3206L1.34277 33.4943C0.884574 33.3801 0.426376 33.7228 0.311826 34.1797C0.197277 34.6365 0.540925 35.0934 0.999123 35.2076L19.5561 39.0339C19.7852 39.091 20.0716 39.091 20.3007 39.091C20.9307 39.091 21.5035 38.9197 22.0762 38.6341L30.8965 33.8941V35.0363L21.1026 40.2903C20.7589 40.4616 20.358 40.5187 19.9571 40.4616L1.40005 36.6353C0.770024 36.5211 0.197277 36.9209 0.0254525 37.5491C-0.089097 38.1773 0.311826 38.7484 0.941848 38.9197L19.4989 42.746C19.7852 42.8031 20.0143 42.8031 20.3007 42.8031C20.988 42.8031 21.618 42.6318 22.1908 42.3462L31.5266 37.3206L31.5838 37.3778L31.6411 37.4349C31.6984 37.492 31.8129 37.492 31.8702 37.5491H31.9275C32.042 37.5491 32.1566 37.6062 32.2711 37.6062C32.3857 37.6062 32.5002 37.6062 32.5575 37.5491C32.6148 37.5491 32.6148 37.5491 32.6721 37.5491C32.7293 37.5491 32.8439 37.492 32.9012 37.4349H32.9584L38.3423 34.5223L51.4582 47.6002C51.7445 47.8858 52.0882 48 52.4891 48C52.89 48 53.2337 47.8858 53.5201 47.6002C54.1501 47.0292 54.1501 46.1725 53.5773 45.6014ZM38.8005 30.8102L33.8176 25.8418V22.4152L39.3159 19.4456L39.0296 30.696L38.8005 30.8102ZM19.6134 15.7335L22.1908 18.3034L16.9215 17.2183L19.6134 15.7335ZM22.7063 14.8197L36.5667 17.6752L31.6984 20.3022L27.2882 19.3885L22.7063 14.8197ZM31.8702 8.82332C32.2139 8.65199 32.6148 8.59488 33.0157 8.65199L48.4799 11.8501L41.3205 15.7335C41.206 15.6764 41.0914 15.6764 40.9769 15.6193L25.2836 12.3641L31.8702 8.82332ZM21.1026 26.6413C20.7589 26.8126 20.358 26.8697 19.9571 26.8126L4.49288 23.6145L12.5686 19.2742L25.8564 22.0155L27.231 23.3861L21.1026 26.6413ZM33.7603 29.8965L36.1085 32.238L33.7603 33.4943V29.8965Z"/>
</mask>
<path d="M53.5773 45.6014L41.0342 33.0946C41.0342 33.0946 41.0914 33.0946 41.0914 33.0375C41.1487 33.0375 41.1487 32.9804 41.206 32.9804C41.2633 32.9804 41.2633 32.9233 41.3205 32.9233C41.3778 32.9233 41.3778 32.8661 41.4351 32.809C41.4924 32.7519 41.4924 32.7519 41.5496 32.6948C41.5496 32.6377 41.6069 32.6377 41.6069 32.5806C41.6069 32.5235 41.6642 32.5235 41.6642 32.4664C41.6642 32.4093 41.7215 32.4093 41.7215 32.3522C41.7215 32.2951 41.7787 32.2951 41.7787 32.238C41.7787 32.1808 41.7787 32.1237 41.7787 32.1237C41.7787 32.0666 41.7787 32.0095 41.7787 31.9524V31.8953V31.8382L52.3173 26.1273C52.89 25.8418 53.0619 25.1565 52.7755 24.5854C52.4891 24.0143 51.8018 23.8429 51.2291 24.1285L41.8933 29.1541V28.0119L52.2027 22.4723C52.6037 22.2439 52.7755 21.7299 52.5464 21.3302C52.3173 20.9304 51.8018 20.7591 51.4009 20.9875L41.9506 26.0702L42.0078 24.5854L52.2027 18.9887C52.6037 18.7603 52.7755 18.2463 52.5464 17.8465C52.3173 17.4468 51.8018 17.2754 51.4009 17.5039L42.0651 22.5294L42.1224 21.0446L52.2027 15.5622C52.6037 15.3337 52.7755 14.8197 52.5464 14.42C52.3173 14.0202 51.8018 13.8489 51.4009 14.0773L42.1224 19.0458L42.1797 17.8465L52.3746 12.3641C52.7755 12.1356 53.0619 11.6788 52.9473 11.2219C52.89 10.765 52.5464 10.3653 52.0309 10.251L33.4739 6.42475C32.5575 6.25342 31.5838 6.36764 30.782 6.82451L21.8471 11.6217C21.5608 11.5645 21.2171 11.6217 20.988 11.793L20.1289 12.2499L8.27302 0.428316C7.70027 -0.142772 6.78387 -0.142772 6.2684 0.428316C5.75293 0.999405 5.69565 1.91315 6.2684 2.42713L17.4943 13.6205L12.0531 16.5901C12.0531 16.5901 11.9959 16.5901 11.9959 16.6472C11.9386 16.6472 11.9386 16.7043 11.8813 16.7043C11.8241 16.7614 11.824 16.7615 11.7668 16.8186C11.7095 16.8186 11.7095 16.8757 11.6522 16.9328C11.595 16.9899 11.595 16.9899 11.5377 17.047C11.5377 17.1041 11.4804 17.1041 11.4804 17.1612C11.4804 17.2183 11.4231 17.2183 11.4231 17.2754L0.5982 23.0434C0.197277 23.2719 -0.089097 23.7287 0.0254525 24.1856C0.0827273 24.6996 0.426376 25.0993 0.941848 25.1565L19.4989 28.9827C19.7852 29.0399 20.0143 29.0399 20.3007 29.0399C20.988 29.0399 21.618 28.8685 22.1908 28.583L28.8919 24.9851L29.6365 25.7275L21.2744 30.2963C20.8735 30.5247 20.358 30.5818 19.8998 30.4676L1.34277 26.6413C0.884574 26.5271 0.426376 26.8697 0.311826 27.3266C0.197277 27.7835 0.540925 28.2403 0.999123 28.3545L19.5561 32.1808C19.7852 32.238 20.0716 32.238 20.3007 32.238C20.9307 32.238 21.5035 32.0666 22.0762 31.7811L30.8965 27.041V28.5259L21.2744 33.7228C20.8735 33.9512 20.358 34.0083 19.8998 33.8941L1.34277 30.0678C0.884574 29.9536 0.426376 30.2962 0.311826 30.7531C0.197277 31.21 0.540925 31.6669 0.999123 31.7811L19.5561 35.6074C19.7852 35.6645 20.0716 35.6645 20.3007 35.6645C20.9307 35.6645 21.5035 35.4932 22.0762 35.2076L30.8965 30.4676V31.9524L21.2744 37.1493C20.8735 37.3778 20.358 37.4349 19.8998 37.3206L1.34277 33.4943C0.884574 33.3801 0.426376 33.7228 0.311826 34.1797C0.197277 34.6365 0.540925 35.0934 0.999123 35.2076L19.5561 39.0339C19.7852 39.091 20.0716 39.091 20.3007 39.091C20.9307 39.091 21.5035 38.9197 22.0762 38.6341L30.8965 33.8941V35.0363L21.1026 40.2903C20.7589 40.4616 20.358 40.5187 19.9571 40.4616L1.40005 36.6353C0.770024 36.5211 0.197277 36.9209 0.0254525 37.5491C-0.089097 38.1773 0.311826 38.7484 0.941848 38.9197L19.4989 42.746C19.7852 42.8031 20.0143 42.8031 20.3007 42.8031C20.988 42.8031 21.618 42.6318 22.1908 42.3462L31.5266 37.3206L31.5838 37.3778L31.6411 37.4349C31.6984 37.492 31.8129 37.492 31.8702 37.5491H31.9275C32.042 37.5491 32.1566 37.6062 32.2711 37.6062C32.3857 37.6062 32.5002 37.6062 32.5575 37.5491C32.6148 37.5491 32.6148 37.5491 32.6721 37.5491C32.7293 37.5491 32.8439 37.492 32.9012 37.4349H32.9584L38.3423 34.5223L51.4582 47.6002C51.7445 47.8858 52.0882 48 52.4891 48C52.89 48 53.2337 47.8858 53.5201 47.6002C54.1501 47.0292 54.1501 46.1725 53.5773 45.6014ZM38.8005 30.8102L33.8176 25.8418V22.4152L39.3159 19.4456L39.0296 30.696L38.8005 30.8102ZM19.6134 15.7335L22.1908 18.3034L16.9215 17.2183L19.6134 15.7335ZM22.7063 14.8197L36.5667 17.6752L31.6984 20.3022L27.2882 19.3885L22.7063 14.8197ZM31.8702 8.82332C32.2139 8.65199 32.6148 8.59488 33.0157 8.65199L48.4799 11.8501L41.3205 15.7335C41.206 15.6764 41.0914 15.6764 40.9769 15.6193L25.2836 12.3641L31.8702 8.82332ZM21.1026 26.6413C20.7589 26.8126 20.358 26.8697 19.9571 26.8126L4.49288 23.6145L12.5686 19.2742L25.8564 22.0155L27.231 23.3861L21.1026 26.6413ZM33.7603 29.8965L36.1085 32.238L33.7603 33.4943V29.8965Z" stroke="black" stroke-width="0.25" mask="url(#path-1-inside-1_113_1068)"/>
</g>
</svg>
