<svg width="45" height="45" viewBox="0 0 45 45" fill="none" xmlns="http://www.w3.org/2000/svg">
<path d="M22.5 45C10.0953 45 0 34.9047 0 22.5C0 10.0953 10.0953 0 22.5 0C34.9047 0 45 10.0953 45 22.5C45 34.9047 34.9047 45 22.5 45ZM22.5 2.54691C11.4962 2.54691 2.54691 11.4962 2.54691 22.5C2.54691 33.5038 11.4962 42.4531 22.5 42.4531C33.5038 42.4531 42.4531 33.5038 42.4531 22.5C42.4531 11.4962 33.5038 2.54691 22.5 2.54691ZM33.9027 33.9027C34.4036 33.4017 34.4036 32.5952 33.9027 32.1027L23.7476 21.9476V9.77222C23.7476 9.06749 23.1788 8.49861 22.474 8.49861C21.7693 8.49861 21.2004 9.06749 21.2004 9.77222V22.4829C21.2004 22.8225 21.3363 23.1452 21.574 23.3829L32.1024 33.9112C32.3486 34.1575 32.6797 34.2848 33.0023 34.2848C33.325 34.2848 33.6565 34.1574 33.9027 33.9027Z" fill="white"/>
</svg>
