<svg width="30" height="48" viewBox="0 0 30 48" fill="none" xmlns="http://www.w3.org/2000/svg">
<path d="M21.1967 18.277L21.1525 18.2328L21.1083 18.277L12.2377 27.1476L8.95451 23.8645L8.91032 23.8203L8.86612 23.8645L7.35939 25.3712L7.3152 25.4154L7.35939 25.4596L12.1935 30.2937L12.2377 30.3379L12.2819 30.2937L22.7034 19.8721L22.7476 19.828L22.7034 19.7838L21.1967 18.277ZM12.3635 42.9311V42.9936H12.426H17.6368H17.6993V42.9311V40.671V40.6085H17.6368H12.426H12.3635V40.671V42.9311ZM6.83857 47.2626H23.1614C26.3977 47.2626 29.0625 44.5979 29.0625 41.3616V6.45575C29.0625 3.21944 26.3977 0.554688 23.1614 0.554688H6.83857C3.60226 0.554688 0.9375 3.21944 0.9375 6.45575V41.3616C0.9375 44.5979 3.60225 47.2626 6.83857 47.2626ZM23.1614 45.0031H6.83857C4.80065 45.0031 3.13425 43.3981 3.13425 41.2988V6.39298C3.13425 4.35575 4.80134 2.68866 6.83857 2.68866H23.1614C25.1987 2.68866 26.8657 4.35575 26.8657 6.39298V41.2988C26.8657 43.336 25.1987 45.0031 23.1614 45.0031Z" fill="white" stroke="white" stroke-width="0.125"/>
</svg>
