<svg width="24" height="24" viewBox="0 0 24 24" fill="none" xmlns="http://www.w3.org/2000/svg">
<path d="M20.4868 3.51368C18.2222 1.24884 15.2063 0 12 0C8.79365 0 5.77778 1.24884 3.51323 3.51368C1.24868 5.7891 0 8.79478 0 12.0015C0 15.2083 1.24868 18.2246 3.51323 20.4894C5.77778 22.7542 8.79365 24.0031 12 24.0031C15.2063 24.0031 18.2222 22.7542 20.4868 20.4894C22.7513 18.2246 24 15.2083 24 12.0015C24 8.79478 22.7513 5.77852 20.4868 3.51368ZM17.6402 15.8539L15.8519 17.6425L12 13.7901L8.14815 17.6425L6.35979 15.8539L10.2116 12.0015L6.35979 8.14919L8.14815 6.3606L12 10.2129L15.8519 6.3606L17.6402 8.14919L13.7884 12.0015L17.6402 15.8539Z" fill="#6F6F6F"/>
</svg>
