<svg version="1.2" xmlns="http://www.w3.org/2000/svg" viewBox="0 0 316 163" width="316" height="163">
	<title>logo-herzp1smartring-by-wuzutech-svg</title>
	<defs>
		<linearGradient id="g1" x2="1" gradientUnits="userSpaceOnUse" gradientTransform="matrix(.54,-15.21,18.65,.662,176.55,133.88)">
			<stop offset="0" stop-color="#371853"/>
			<stop offset="1" stop-color="#bb57a1"/>
		</linearGradient>
		<linearGradient id="g2" x2="1" gradientUnits="userSpaceOnUse" gradientTransform="matrix(-29.25,0,0,-22.976,170.88,124.6)">
			<stop offset="0" stop-color="#7e60a9"/>
			<stop offset="1" stop-color="#8159a5"/>
		</linearGradient>
		<linearGradient id="g3" x2="1" gradientUnits="userSpaceOnUse" gradientTransform="matrix(-0.42,13.22,-16.274,-0.517,156.61,118.76)">
			<stop offset="0" stop-color="#281651" stop-opacity="1"/>
			<stop offset=".77" stop-color="#6b52a2" stop-opacity=".5"/>
		</linearGradient>
		<linearGradient id="g4" x2="1" gradientUnits="userSpaceOnUse" gradientTransform="matrix(4.25,-4.35,4.172,4.076,169.77,131.35)">
			<stop offset="0" stop-color="#9e5ca5"/>
			<stop offset="1" stop-color="#b563a7"/>
		</linearGradient>
		<linearGradient id="g5" x2="1" gradientUnits="userSpaceOnUse" gradientTransform="matrix(3.2,-3.28,3.252,3.173,171.25,132.96)">
			<stop offset="0" stop-color="#281651" stop-opacity="0"/>
			<stop offset="1" stop-color="#6b52a2" stop-opacity="1"/>
		</linearGradient>
		<linearGradient id="g6" x2="1" gradientUnits="userSpaceOnUse" gradientTransform="matrix(-19.96,3.53,-1.89,-10.685,169.93,117.68)">
			<stop offset="0" stop-color="#7e60a9"/>
			<stop offset="1" stop-color="#8159a5"/>
		</linearGradient>
		<linearGradient id="g7" x2="1" gradientUnits="userSpaceOnUse" gradientTransform="matrix(18.46,-1.77,.831,8.666,149.61,118.5)">
			<stop offset="0" stop-color="#6b52a2" stop-opacity="1"/>
			<stop offset="1" stop-color="#281651" stop-opacity="0"/>
		</linearGradient>
	</defs>
	<style>
		.s0 { fill: #010101 } 
		.s1 { fill: #1d1f23 } 
		.s2 { fill: url(#g1) } 
		.s3 { fill: url(#g2) } 
		.s4 { fill: url(#g3) } 
		.s5 { fill: url(#g4) } 
		.s6 { opacity: .3;fill: url(#g5) } 
		.s7 { fill: url(#g6) } 
		.s8 { opacity: .4;fill: url(#g7) } 
	</style>
	<g>
		<path class="s0" d="m56.6 12.4v53.2c0 1-0.8 1.8-1.8 1.8h-8.1c-1 0-1.8-0.8-1.8-1.8v-19.1c0-1-0.8-1.8-1.8-1.8h-19.8c-1 0-1.8 0.8-1.8 1.8v19.1c0 1-0.8 1.8-1.9 1.8h-8c-1 0-1.8-0.8-1.8-1.8v-53.2c0-1 0.8-1.8 1.8-1.8h8c1.1 0 1.9 0.8 1.9 1.8v19.1c0 1 0.8 1.8 1.8 1.8h19.8c1 0 1.8-0.8 1.8-1.8v-19.1c0-1 0.8-1.8 1.8-1.8h8.1c1 0 1.8 0.8 1.8 1.8z"/>
		<path class="s0" d="m107.2 58v7.8c0 1-0.9 1.8-1.9 1.8h-40.2c-1 0-1.9-0.8-1.9-1.8v-53.2c0-1 0.9-1.8 1.9-1.8h40.2c1 0 1.9 0.8 1.9 1.8v7.7c0 1-0.9 1.8-1.9 1.8h-28.5c-1 0-1.8 0.8-1.8 1.8v7.8c0 1 0.8 1.8 1.8 1.8h22.7c1 0 1.8 0.8 1.8 1.8v7.8c0 1-0.8 1.8-1.8 1.8h-22.7c-1 0-1.8 0.8-1.8 1.8v7.7c0 1 0.8 1.8 1.8 1.8h28.5c1 0 1.9 0.8 1.9 1.8z"/>
		<path fill-rule="evenodd" class="s0" d="m158.8 25.2q0 3.8 0.1 7.3 0.1 3.5-0.3 7.4-0.3 2.1-1.2 3.5-0.9 1.5-2.7 2.7-1.8 1.2-3.7 1.3-0.4 0-0.9 0c-1.3 0.1-2.1 1.5-1.5 2.7l8.4 14.6c0.7 1.2-0.2 2.7-1.6 2.7h-9.1c-0.7 0-1.3-0.4-1.7-0.9l-10.3-18.1c-0.3-0.5-0.9-0.9-1.6-0.9h-6.2c-1 0-1.8 0.8-1.8 1.8v16.3c0 1-0.8 1.8-1.9 1.8h-8c-1 0-1.8-0.8-1.8-1.8v-53.2c0-1 0.8-1.8 1.8-1.8h34.6q2 0 3.7 0.7 1.7 0.7 3 1.9 1.2 1.3 2 2.9 0.7 1.7 0.7 3.7v5.4zm-13.8 10.9c1 0 1.9-0.8 1.9-1.7v-10.7c0-1-0.9-1.8-1.9-1.8h-18.5c-1 0-1.8 0.8-1.8 1.8v10.7c0 0.9 0.8 1.7 1.8 1.7z"/>
		<path class="s0" d="m167.6 12.2c0.2-0.9 1-1.4 1.9-1.4h38.5c1.1 0 1.9 0.8 1.9 1.7v8.9c0 0.5-0.2 0.9-0.5 1.2l-27.9 30.6c-1.1 1.2-0.2 3 1.3 3h25.2c1.1 0 1.9 0.8 1.9 1.8v7.8c0 1-0.8 1.8-1.9 1.8h-43.1c-1.1 0-1.9-0.8-1.9-1.8v-8.9c0-0.5 0.2-0.9 0.5-1.2l28-30.6c1.1-1.2 0.2-3-1.4-3h-23.7c-1 0-1.7-1-1.4-1.9z"/>
		<g>
			<path fill-rule="evenodd" class="s0" d="m276.1 25q0.1 3.8 0.2 7.5 0.2 3.7-0.2 7.6-0.2 2.1-1.1 3.5-0.9 1.5-2.8 2.7-1.8 1.2-3.7 1.3-1.8 0.1-3.7 0.1h-20.1c-1 0-1.8 0.8-1.8 1.8v16.3c0 1-0.9 1.8-1.9 1.8h-8c-1 0-1.9-0.8-1.9-1.8v-53.2c0-1 0.9-1.8 1.9-1.8h34q3.9 0 6.5 2.4 2.7 2.4 2.7 6.3v5.5zm-13.6 11.3c1 0 1.9-0.8 1.9-1.8v-10.6c0-1-0.9-1.8-1.9-1.8h-17.9c-1 0-1.8 0.8-1.8 1.8v10.6c0 1 0.8 1.8 1.8 1.8z"/>
			<path class="s0" d="m305.5 12.5v53.2c0 1-0.8 1.8-1.8 1.8h-8c-1.1 0-1.9-0.8-1.9-1.8v-34.8c0-1.6-2-2.4-3.1-1.3-0.7 0.7-1.9 0.7-2.6 0.1l-5.8-5.5c-0.7-0.7-0.7-1.8 0-2.5l11-10.5c0.3-0.3 0.8-0.5 1.3-0.5h9.1c1 0 1.8 0.8 1.8 1.8z"/>
		</g>
	</g>
	<g>
		<path class="s0" d="m86.5 87.3c-0.2 0-0.3-0.1-0.4-0.3q-0.1-0.7-0.6-1.2-0.6-0.4-1.8-0.4-2.3 0-2.3 1.5 0 0.6 0.5 0.9 0.5 0.4 1.5 0.6 1.2 0.3 2.1 0.6 0.9 0.2 1.6 0.5 0.4 0.2 0.8 0.5 0.3 0.2 0.6 0.6 0.2 0.4 0.4 0.9 0.2 0.5 0.2 1.3-0.1 0.9-0.4 1.6-0.4 0.7-1 1.2-0.7 0.4-1.6 0.7-0.8 0.3-1.8 0.3-2.7 0-4.1-1.1-1.3-1-1.4-2.7c-0.1-0.3 0.1-0.4 0.3-0.4h1.8c0.2 0 0.4 0.1 0.4 0.2q0.1 0.8 0.7 1.3 0.8 0.5 2 0.5 1.2 0 1.8-0.4 0.7-0.5 0.7-1.2 0-0.3-0.1-0.6-0.1-0.3-0.3-0.5-0.2-0.2-0.6-0.3-0.3-0.2-1-0.3-1.4-0.3-2.4-0.6-1.1-0.3-1.8-0.8-0.6-0.5-1-1.1-0.3-0.7-0.3-1.7 0-0.8 0.3-1.5 0.3-0.6 0.9-1.1 0.6-0.5 1.4-0.8 0.9-0.3 2-0.3c0.8 0 1.5 0.1 2.1 0.3q0.9 0.3 1.5 0.8 0.7 0.5 1 1.3 0.3 0.6 0.4 1.3c0 0.2-0.1 0.4-0.3 0.4h-1.9z"/>
		<path class="s0" d="m105.9 95.8v-5.7c0-0.4-0.6-0.4-0.7 0l-1.6 5.8c0 0.1-0.2 0.2-0.3 0.2h-2.1c-0.2 0-0.3-0.1-0.3-0.2l-1.6-5.8c-0.1-0.4-0.7-0.3-0.7 0.1v5.6c0 0.1-0.2 0.3-0.3 0.3h-1.8c-0.2 0-0.3-0.2-0.3-0.3v-11.9c0-0.2 0.1-0.3 0.3-0.3h3.2c0.2 0 0.4 0.1 0.4 0.2l1.9 7.6c0 0.4 0.6 0.4 0.6 0l1.9-7.6c0-0.1 0.2-0.2 0.3-0.2h3.2c0.2 0 0.3 0.1 0.3 0.3v11.9c0 0.1-0.1 0.3-0.3 0.3h-1.8c-0.2 0-0.3-0.2-0.3-0.3z"/>
		<path fill-rule="evenodd" class="s0" d="m124.4 95.9l-0.7-2.1c0-0.2-0.1-0.3-0.3-0.3h-4.1c-0.1 0-0.3 0.1-0.3 0.3l-0.8 2.1c0 0.1-0.1 0.2-0.3 0.2h-2c-0.2 0-0.4-0.2-0.3-0.5l4.2-11.8c0-0.1 0.2-0.2 0.3-0.2h2.6c0.1 0 0.2 0.1 0.3 0.2l4.2 11.9c0 0.2-0.1 0.4-0.4 0.4h-2.1c-0.1 0-0.2-0.1-0.3-0.2zm-3-9.5h-0.1l-1.4 4.5c-0.1 0.3 0.1 0.5 0.3 0.5h2.3c0.2 0 0.4-0.3 0.3-0.5l-1.4-4.5z"/>
		<path fill-rule="evenodd" class="s0" d="m142 96.1c-0.1 0-0.3-0.2-0.3-0.3v-2.9q0-0.9-0.4-1.3-0.4-0.4-1.6-0.4h-2.4c-0.2 0-0.4 0.2-0.4 0.4v4.2c0 0.1-0.1 0.3-0.3 0.3h-1.9c-0.2 0-0.3-0.2-0.3-0.3v-11.9c0-0.2 0.1-0.3 0.3-0.3h6q0.9 0 1.6 0.2 0.7 0.3 1.2 0.8 0.6 0.5 0.8 1.1 0.3 0.7 0.3 1.5 0 1-0.5 1.8-0.3 0.5-0.7 0.8c-0.3 0.1-0.3 0.4 0 0.6q0.3 0.2 0.5 0.5 0.4 0.6 0.4 1.6v3.2c0 0.2-0.2 0.4-0.4 0.4h-1.9zm-5.1-10v2.6c0 0.2 0.2 0.4 0.4 0.4h2.9q1.1 0 1.5-0.5 0.4-0.5 0.4-1.2 0-0.7-0.4-1.2-0.4-0.5-1.4-0.5h-3c-0.2 0-0.4 0.2-0.4 0.4z"/>
		<path class="s0" d="m155.2 95.8v-9.7c0-0.2-0.2-0.3-0.4-0.3h-3c-0.2 0-0.4-0.2-0.4-0.4v-1.5c0-0.2 0.2-0.3 0.4-0.3h9.5c0.1 0 0.3 0.1 0.3 0.3v1.5c0 0.2-0.2 0.4-0.3 0.4h-3.1c-0.2 0-0.4 0.1-0.4 0.3v9.7c0 0.1-0.2 0.3-0.3 0.3h-2c-0.2 0-0.3-0.2-0.3-0.3z"/>
		<path fill-rule="evenodd" class="s0" d="m187.6 96.1c-0.2 0-0.4-0.2-0.4-0.3v-2.9q0-0.9-0.4-1.3-0.4-0.4-1.5-0.4h-2.5c-0.2 0-0.3 0.2-0.3 0.4v4.2c0 0.1-0.2 0.3-0.4 0.3h-1.8c-0.2 0-0.4-0.2-0.4-0.3v-11.9c0-0.2 0.2-0.3 0.4-0.3h6q0.9 0 1.6 0.2 0.7 0.3 1.2 0.8 0.5 0.5 0.8 1.1 0.2 0.7 0.2 1.5 0 1-0.4 1.8-0.3 0.5-0.8 0.8c-0.2 0.1-0.2 0.4 0 0.6q0.4 0.2 0.6 0.5 0.3 0.6 0.3 1.6v3.2c0 0.2-0.2 0.4-0.3 0.4h-1.9zm-5.1-10v2.6c0 0.2 0.1 0.4 0.3 0.4h3q1 0 1.5-0.5 0.4-0.5 0.4-1.2 0-0.7-0.4-1.2-0.5-0.5-1.4-0.5h-3.1c-0.2 0-0.3 0.2-0.3 0.4z"/>
		<path class="s0" d="m197.3 95.8v-11.9c0-0.2 0.2-0.3 0.4-0.3h1.9c0.2 0 0.3 0.1 0.3 0.3v11.9c0 0.1-0.1 0.3-0.3 0.3h-1.9c-0.2 0-0.4-0.2-0.4-0.3z"/>
		<path class="s0" d="m215.1 95.9l-4.7-7.2c-0.1-0.3-0.6-0.2-0.6 0.2v6.9c0 0.1-0.2 0.3-0.4 0.3h-1.7c-0.2 0-0.3-0.2-0.3-0.3v-11.9c0-0.2 0.1-0.3 0.3-0.3h2.2q0.2 0 0.3 0.1l4.3 6.9c0.2 0.3 0.6 0.2 0.6-0.2v-6.5c0-0.2 0.2-0.3 0.4-0.3h1.7c0.2 0 0.4 0.1 0.4 0.3v11.9c0 0.1-0.2 0.3-0.4 0.3h-1.8q-0.2 0-0.3-0.2z"/>
		<path class="s0" d="m234.3 95.8c0-0.3-0.3-0.5-0.6-0.3q-0.3 0.4-0.9 0.6-1 0.4-2.3 0.4-1.3 0-2.3-0.5-1.1-0.6-1.8-1.5-0.8-0.9-1.2-2.2-0.4-1.2-0.4-2.5 0-1.4 0.4-2.6 0.4-1.2 1.2-2.1 0.8-0.9 1.9-1.4 1.2-0.6 2.7-0.6 1.1 0.1 2.1 0.4 1 0.3 1.7 0.9 0.7 0.5 1.2 1.3 0.3 0.6 0.4 1.3c0.1 0.2-0.1 0.4-0.3 0.4h-2c-0.1 0-0.3-0.1-0.3-0.2q-0.1-0.3-0.3-0.6-0.2-0.4-0.6-0.7-0.4-0.3-1.1-0.5-0.3-0.1-0.6-0.1-1.7 0-2.7 1.2-1 1.2-1 3.4 0 0.8 0.2 1.6 0.2 0.8 0.7 1.4 0.4 0.6 1 1.1 0.7 0.4 1.6 0.4 0.7-0.1 1.2-0.3 0.6-0.2 1-0.6 0.4-0.4 0.6-0.9 0.2-0.4 0.2-0.7c0.1-0.2-0.1-0.4-0.3-0.4h-2.1c-0.1 0-0.3-0.2-0.3-0.4v-1.4c0-0.2 0.2-0.3 0.3-0.3h4.6c0.2 0 0.3 0.1 0.3 0.3v6.1c0 0.2-0.1 0.3-0.3 0.3h-1.5c-0.2 0-0.4-0.1-0.4-0.3z"/>
	</g>
	<g>
		<g>
			<path class="s1" d="m118.8 142.2l-3.4 9.7c-0.3 1.1-1.5 1.9-2.7 1.9-1.3 0-2.4-0.8-2.8-1.9l-2.4-7.2-2.4 7.2c-0.4 1.1-1.5 1.9-2.8 1.9-1.3 0-2.4-0.8-2.8-1.9l-3.3-9.7h3.1l3 8.9 2.4-7.2c0.4-1.1 1.5-1.9 2.8-1.9 1.2 0 2.4 0.8 2.8 1.9l2.4 7.2 2.9-8.9z"/>
			<path class="s1" d="m135 153.5h-12.3c-2 0-3.6-1.6-3.6-3.5v-7.8h3v8.4h9.9v-8.4h3v11.3z"/>
			<path class="s1" d="m150.3 148.2l-12.3 2.4h14.2v2.9h-13.5c-1.7 0-3-1.3-3-3 0-1.5 1-2.7 2.4-3l12.3-2.3h-14.1v-2.9h13.4c1.7 0 3 1.3 3 3 0 1.4-1 2.7-2.4 2.9z"/>
			<path class="s1" d="m169.4 153.5h-12.3c-2 0-3.6-1.6-3.6-3.5v-7.8h3v8.4h9.9v-8.4h3v11.3z"/>
			<path class="s1" d="m186.1 145.2h-6.4v8.3h-3v-8.3h-6.3v-3h15.7z"/>
			<path fill-rule="evenodd" class="s1" d="m202.5 153.5h-12.3c-2 0-3.6-1.6-3.6-3.5v-4.2c0-2 1.6-3.6 3.6-3.6h8.7c2 0 3.6 1.6 3.6 3.6v3.5h-12.9v1.3h12.9c0 0 0 2.9 0 2.9zm-2.9-7.1v-1.2h-10v1.2z"/>
			<path class="s1" d="m219.7 153.5h-12.3c-2 0-3.6-1.6-3.6-3.5v-4.2c0-2 1.6-3.6 3.6-3.6h12.3v3h-13v5.4h13v2.9z"/>
			<path class="s1" d="m236.5 153.5h-2.9v-8.3h-10v8.3h-3v-15.4h3v4.1h9.3c2 0 3.6 1.6 3.6 3.6v7.7z"/>
		</g>
		<g>
			<path class="s2" d="m179.1 113.1c-1.5 0-2.9 0.8-3.5 2.2-1 1.9-2.4 4.8-3.6 7.3-1.8 3.6-5 5.6-9.5 2.1q0 0 0 0.1c2.4 2.4 7 6.9 8.7 8.6 5.3 5.2 9.6 2.1 11.9-2.6l8.6-17.7z"/>
			<path class="s3" d="m154.3 136.1c1.4 0 2.8-0.8 3.4-2.2 1-1.9 2.4-4.8 3.6-7.3 1.8-3.6 5-5.6 9.5-2.1q0 0 0.1-0.1c-2.5-2.4-7.1-6.9-8.8-8.6-5.2-5.2-9.6-2.1-11.8 2.6l-8.7 17.7z"/>
			<path class="s4" d="m154.3 136.1c1.4 0 2.8-0.8 3.4-2.2 1-1.9 2.4-4.8 3.6-7.3 1.8-3.6 5-5.6 9.5-2.1q0 0 0.1-0.1c-2.5-2.4-7.1-6.9-8.8-8.6-5.2-5.2-9.6-2.1-11.8 2.6l-8.7 17.7z"/>
			<path class="s5" d="m171.2 133.4c5.3 5.2 9.6 2.1 11.9-2.6l4.8-9.8c-7 14.4-18.8 9.2-25.4 3.7q0 0 0 0.1c2.4 2.4 7 6.9 8.7 8.6z"/>
			<path class="s6" d="m165.6 127.8c2.2 2.2 4.5 4.5 5.6 5.6 5.3 5.2 9.6 2.1 11.9-2.6l2.4-5c-5.9 8-14 5.8-19.9 2z"/>
			<path class="s7" d="m162.1 115.8c-5.2-5.2-9.6-2.1-11.8 2.6l-4.8 9.8c7-14.4 18.7-9.2 25.3-3.7q0 0 0.1-0.1c-2.5-2.4-7.1-6.9-8.8-8.6z"/>
			<path class="s8" d="m167.8 121.4c-2.2-2.2-4.6-4.5-5.7-5.6-5.2-5.2-9.6-2.1-11.9 2.6l-2.4 5c5.9-8 14-5.8 19.9-2z"/>
		</g>
	</g>
	<g>
		<path fill-rule="evenodd" class="s0" d="m85.8 139.2q-0.3 1.4-1.2 2.3-0.8 0.9-2 0.9-0.7 0-1.1-0.3-0.2-0.2-0.4-0.6l-0.2 0.7h-1.5l1.7-7.9h1.6l-0.6 2.8q0.3-0.4 0.7-0.6 0.5-0.2 1.1-0.2 1.2 0 1.7 0.8 0.4 0.8 0.2 2.1zm-1.7 0.2q0.2-0.6 0.1-1-0.2-0.8-1-0.8-0.8 0-1.3 0.8-0.2 0.4-0.4 1-0.1 0.8 0.1 1.2 0.2 0.5 0.9 0.5 0.6 0 1-0.4 0.5-0.5 0.6-1.3z"/>
		<path class="s0" d="m86.2 143.4h0.2q0.2 0 0.4 0 0.2-0.1 0.4-0.2 0.1-0.1 0.3-0.3 0.2-0.3 0.2-0.4l-0.9-6.1h1.7l0.4 4.3 2.1-4.3h1.7l-3.3 5.8q-0.9 1.6-1.3 2-0.4 0.4-1.5 0.4-0.2 0-0.3 0-0.1 0-0.4 0l0.3-1.2z"/>
	</g>
</svg>