<svg width="102" height="22" viewBox="0 0 102 22" fill="none" xmlns="http://www.w3.org/2000/svg">
<g id="Group 470066">
<path id="Star 1" d="M9.69395 3.05123C9.9865 2.11593 11.3102 2.11593 11.6028 3.05123L12.7547 6.73409C12.8865 7.15532 13.2788 7.44036 13.7201 7.4355L17.5787 7.39302C18.5586 7.38223 18.9677 8.64114 18.1686 9.2084L15.0219 11.4421C14.662 11.6975 14.5122 12.1587 14.6532 12.577L15.886 16.2336C16.199 17.1622 15.1281 17.9402 14.3417 17.3555L11.245 15.0532C10.8908 14.7898 10.4059 14.7898 10.0517 15.0532L6.955 17.3555C6.16857 17.9402 5.09768 17.1622 5.41075 16.2336L6.64352 12.577C6.78451 12.1587 6.63466 11.6975 6.27476 11.4421L3.12813 9.2084C2.32902 8.64114 2.73806 7.38224 3.71798 7.39302L7.57657 7.4355C8.0179 7.44036 8.41022 7.15532 8.54198 6.73409L9.69395 3.05123Z" fill="#F3A83B"/>
<path id="Star 2" d="M29.8697 3.05123C30.1623 2.11593 31.486 2.11593 31.7785 3.05123L32.9305 6.73409C33.0623 7.15532 33.4546 7.44036 33.8959 7.4355L37.7545 7.39302C38.7344 7.38223 39.1435 8.64114 38.3444 9.2084L35.1977 11.4421C34.8378 11.6975 34.688 12.1587 34.829 12.577L36.0617 16.2336C36.3748 17.1622 35.3039 17.9402 34.5175 17.3555L31.4208 15.0532C31.0666 14.7898 30.5817 14.7898 30.2275 15.0532L27.1308 17.3555C26.3443 17.9402 25.2735 17.1622 25.5865 16.2336L26.8193 12.577C26.9603 12.1587 26.8104 11.6975 26.4505 11.4421L23.3039 9.2084C22.5048 8.64114 22.9138 7.38224 23.8938 7.39302L27.7524 7.4355C28.1937 7.44036 28.586 7.15532 28.7178 6.73409L29.8697 3.05123Z" fill="#F3A83B"/>
<path id="Star 3" d="M50.0455 3.05123C50.3381 2.11593 51.6618 2.11593 51.9543 3.05123L53.1063 6.73409C53.238 7.15532 53.6304 7.44036 54.0717 7.4355L57.9303 7.39302C58.9102 7.38223 59.3193 8.64114 58.5201 9.2084L55.3735 11.4421C55.0136 11.6975 54.8638 12.1587 55.0048 12.577L56.2375 16.2336C56.5506 17.1622 55.4797 17.9402 54.6933 17.3555L51.5966 15.0532C51.2424 14.7898 50.7574 14.7898 50.4033 15.0532L47.3066 17.3555C46.5201 17.9402 45.4492 17.1622 45.7623 16.2336L46.9951 12.577C47.1361 12.1587 46.9862 11.6975 46.6263 11.4421L43.4797 9.2084C42.6806 8.64114 43.0896 7.38224 44.0695 7.39302L47.9281 7.4355C48.3695 7.44036 48.7618 7.15532 48.8935 6.73409L50.0455 3.05123Z" fill="#F3A83B"/>
<path id="Star 4" d="M70.2213 3.05123C70.5138 2.11593 71.8375 2.11593 72.1301 3.05123L73.2821 6.73409C73.4138 7.15532 73.8061 7.44036 74.2475 7.4355L78.1061 7.39302C79.086 7.38223 79.495 8.64114 78.6959 9.2084L75.5493 11.4421C75.1894 11.6975 75.0395 12.1587 75.1805 12.577L76.4133 16.2336C76.7264 17.1622 75.6555 17.9402 74.869 17.3555L71.7724 15.0532C71.4182 14.7898 70.9332 14.7898 70.579 15.0532L67.4823 17.3555C66.6959 17.9402 65.625 17.1622 65.9381 16.2336L67.1709 12.577C67.3119 12.1587 67.162 11.6975 66.8021 11.4421L63.6555 9.2084C62.8564 8.64114 63.2654 7.38224 64.2453 7.39302L68.1039 7.4355C68.5452 7.44036 68.9376 7.15532 69.0693 6.73409L70.2213 3.05123Z" fill="#F3A83B"/>
<g id="Group 470066_2">
<path id="Star 5" d="M90.3971 3.05123C90.6896 2.11593 92.0133 2.11593 92.3059 3.05123L93.4578 6.73409C93.5896 7.15532 93.9819 7.44036 94.4233 7.4355L98.2818 7.39302C99.2618 7.38223 99.6708 8.64114 98.8717 9.2084L95.7251 11.4421C95.3652 11.6975 95.2153 12.1587 95.3563 12.577L96.5891 16.2336C96.9022 17.1622 95.8313 17.9402 95.0448 17.3555L91.9481 15.0532C91.5939 14.7898 91.109 14.7898 90.7548 15.0532L87.6581 17.3555C86.8717 17.9402 85.8008 17.1622 86.1139 16.2336L87.3466 12.577C87.4876 12.1587 87.3378 11.6975 86.9779 11.4421L83.8313 9.2084C83.0321 8.64114 83.4412 7.38224 84.4211 7.39302L88.2797 7.4355C88.721 7.44036 89.1133 7.15532 89.2451 6.73409L90.3971 3.05123Z" fill="#F3A83B"/>
<g id="Group 470067">
<mask id="mask0_298_125" style="mask-type:alpha" maskUnits="userSpaceOnUse" x="83" y="2" width="17" height="16">
<path id="Star 6" d="M90.3971 3.05123C90.6896 2.11593 92.0133 2.11593 92.3059 3.05123L93.4578 6.73409C93.5896 7.15532 93.9819 7.44036 94.4233 7.4355L98.2818 7.39302C99.2618 7.38223 99.6708 8.64114 98.8717 9.2084L95.7251 11.4421C95.3652 11.6975 95.2153 12.1587 95.3563 12.577L96.5891 16.2336C96.9022 17.1622 95.8313 17.9402 95.0448 17.3555L91.9481 15.0532C91.5939 14.7898 91.109 14.7898 90.7548 15.0532L87.6581 17.3555C86.8717 17.9402 85.8008 17.1622 86.1139 16.2336L87.3466 12.577C87.4876 12.1587 87.3378 11.6975 86.9779 11.4421L83.8313 9.2084C83.0321 8.64114 83.4412 7.38224 84.4211 7.39302L88.2797 7.4355C88.721 7.44036 89.1133 7.15532 89.2451 6.73409L90.3971 3.05123Z" fill="#F3A83B"/>
</mask>
<g mask="url(#mask0_298_125)">
<rect id="Rectangle 20" x="92" y="0.296875" width="10" height="21" fill="#A8A8A8"/>
</g>
</g>
</g>
</g>
</svg>
