<svg width="44" height="48" viewBox="0 0 44 48" fill="none" xmlns="http://www.w3.org/2000/svg">
<g fill="white">
<path d="M37.6276 2.91492H31.9891V1.18088C32.0014 1.03063 31.9832 0.879397 31.9356 0.736741C31.8879 0.594086 31.8119 0.463117 31.7123 0.35212C31.6127 0.241124 31.4917 0.152516 31.357 0.0919053C31.2222 0.0312944 31.0767 0 30.9295 0C30.7824 0 30.6368 0.0312944 30.5021 0.0919053C30.3674 0.152516 30.2464 0.241124 30.1468 0.35212C30.0472 0.463117 29.9712 0.594086 29.9235 0.736741C29.8759 0.879397 29.8576 1.03063 29.87 1.18088V2.91492H14.145V1.18088C14.1574 1.03063 14.1391 0.879397 14.0915 0.736741C14.0438 0.594086 13.9678 0.463117 13.8682 0.35212C13.7686 0.241124 13.6476 0.152516 13.5129 0.0919053C13.3782 0.0312944 13.2326 0 13.0855 0C12.9383 0 12.7928 0.0312944 12.658 0.0919053C12.5233 0.152516 12.4023 0.241124 12.3027 0.35212C12.2031 0.463117 12.1271 0.594086 12.0794 0.736741C12.0318 0.879397 12.0136 1.03063 12.0259 1.18088V2.91492H6.3649C5.52681 2.91593 4.69714 3.08632 3.92341 3.41635C3.14968 3.74638 2.44708 4.22956 1.85585 4.83822C1.26463 5.44688 0.79638 6.16906 0.477931 6.96342C0.159482 7.75777 -0.00291546 8.60869 3.96151e-05 9.46745V41.4782C0.00202137 43.2072 0.67324 44.8649 1.86645 46.0876C3.05967 47.3102 4.67745 47.998 6.3649 48H37.6276C39.3164 48 40.9361 47.3131 42.1309 46.0903C43.3258 44.8674 43.998 43.2086 44 41.4782V9.46745C44.002 8.60833 43.8386 7.75724 43.5194 6.96284C43.2001 6.16844 42.7311 5.44631 42.1393 4.83776C41.5475 4.2292 40.8444 3.74614 40.0703 3.4162C39.2961 3.08627 38.4661 2.91593 37.6276 2.91492ZM41.8734 41.4782C41.8734 42.0495 41.7635 42.6152 41.5502 43.143C41.3368 43.6708 41.0241 44.1504 40.6298 44.5544C40.2356 44.9584 39.7675 45.2788 39.2524 45.4975C38.7373 45.7161 38.1852 45.8286 37.6276 45.8286H6.3649C5.23886 45.8286 4.15895 45.3703 3.36271 44.5544C2.56648 43.7385 2.11917 42.632 2.11917 41.4782V17.4011H41.8734V41.4782ZM41.8734 15.222H2.11917V9.46745C2.11621 8.89421 2.22384 8.32602 2.43588 7.79554C2.64793 7.26506 2.9602 6.78274 3.35474 6.37633C3.74929 5.96991 4.21834 5.6474 4.73493 5.42733C5.25151 5.20726 5.80545 5.09397 6.3649 5.09398H11.981V6.99683C11.9686 7.14707 11.9869 7.29831 12.0345 7.44096C12.0822 7.58362 12.1582 7.71459 12.2578 7.82559C12.3574 7.93658 12.4784 8.02519 12.6131 8.0858C12.7478 8.14641 12.8934 8.17771 13.0405 8.17771C13.1877 8.17771 13.3332 8.14641 13.468 8.0858C13.6027 8.02519 13.7237 7.93658 13.8233 7.82559C13.9229 7.71459 13.9989 7.58362 14.0465 7.44096C14.0942 7.29831 14.1124 7.14707 14.1001 6.99683V5.09398H29.8251V6.99683C29.8127 7.14707 29.8309 7.29831 29.8786 7.44096C29.9262 7.58362 30.0023 7.71459 30.1019 7.82559C30.2015 7.93658 30.3224 8.02519 30.4572 8.0858C30.5919 8.14641 30.7375 8.17771 30.8846 8.17771C31.0318 8.17771 31.1773 8.14641 31.312 8.0858C31.4468 8.02519 31.5678 7.93658 31.6674 7.82559C31.767 7.71459 31.843 7.58362 31.8906 7.44096C31.9383 7.29831 31.9565 7.14707 31.9442 6.99683V5.09398H37.5827C38.1459 5.08787 38.7047 5.19665 39.2265 5.41398C39.7483 5.63131 40.2227 5.95286 40.622 6.35989C41.0213 6.76692 41.3376 7.2513 41.5524 7.78482C41.7673 8.31833 41.8764 8.89031 41.8734 9.46745V15.222Z" />
<path d="M21.7443 41.2685C20.8686 41.2557 20.0057 41.0959 19.1555 40.7891C18.3118 40.4823 17.5447 39.9709 16.8544 39.255C16.1641 38.5391 15.6112 37.5771 15.1957 36.369C14.7866 35.1609 14.582 33.6524 14.582 31.8434C14.582 30.1304 14.7514 28.6091 15.0902 27.2795C15.4354 25.95 15.9308 24.8282 16.5763 23.9141C17.2219 22.9937 18.0018 22.2937 18.9158 21.8143C19.8299 21.3349 20.8558 21.0952 21.9936 21.0952C23.1634 21.0952 24.2021 21.3253 25.1097 21.7856C26.0174 22.2458 26.7525 22.8818 27.315 23.6936C27.8839 24.5054 28.245 25.429 28.3984 26.4645H25.4741C25.2759 25.6464 24.8828 24.9784 24.2947 24.4606C23.7067 23.9429 22.9396 23.684 21.9936 23.684C20.5554 23.684 19.4336 24.3104 18.6282 25.5633C17.8292 26.8161 17.4265 28.5579 17.4201 30.7888H17.5639C17.9027 30.2326 18.3182 29.7596 18.8104 29.3697C19.3089 28.9734 19.8651 28.6698 20.4787 28.4589C21.0987 28.2415 21.7507 28.1329 22.4347 28.1329C23.5724 28.1329 24.6016 28.4109 25.522 28.967C26.4489 29.5167 27.1871 30.2774 27.7369 31.249C28.2866 32.2206 28.5614 33.3328 28.5614 34.5856C28.5614 35.8385 28.277 36.9731 27.7081 37.9894C27.1456 39.0057 26.353 39.8111 25.3303 40.4056C24.3075 40.9937 23.1122 41.2813 21.7443 41.2685ZM21.7347 38.7756C22.489 38.7756 23.1634 38.5902 23.7578 38.2195C24.3523 37.8488 24.8221 37.3502 25.1673 36.7238C25.5124 36.0973 25.685 35.3974 25.685 34.624C25.685 33.8697 25.5156 33.1826 25.1768 32.5625C24.8445 31.9425 24.3842 31.4503 23.7962 31.086C23.2145 30.7216 22.5497 30.5395 21.8018 30.5395C21.233 30.5395 20.7056 30.6481 20.2198 30.8655C19.7404 31.0828 19.3185 31.3832 18.9542 31.7667C18.5898 32.1503 18.3022 32.5913 18.0913 33.0899C17.8867 33.5821 17.7844 34.103 17.7844 34.6527C17.7844 35.3878 17.9538 36.0686 18.2926 36.695C18.6378 37.3214 19.1076 37.8264 19.7021 38.2099C20.3029 38.587 20.9805 38.7756 21.7347 38.7756Z" />
</g>
</svg>
