<svg width="70" height="61" viewBox="0 0 70 61" fill="none" xmlns="http://www.w3.org/2000/svg">
<g fill="white" stroke="white" stroke-width="0.125">
<path d="M36.0708 1.22895L36.0704 1.22863C35.6211 0.779302 34.9428 0.779259 34.4934 1.2285C29.4527 6.19786 25.76 12.0896 23.3475 18.9056L23.3439 18.9157V18.9265V18.9901C23.0618 20.1255 22.8477 21.332 22.8477 22.5428C22.8477 29.3139 28.4057 34.8721 35.2448 34.8721C42.0842 34.8721 47.6421 29.3141 47.6421 22.4748C47.6421 21.1995 47.4999 19.9894 47.1458 18.9197C47.1457 18.8517 47.143 18.7657 47.0665 18.6824C44.7272 12.0849 41.0361 6.26591 36.0708 1.22895ZM25.4514 19.5823C27.5688 13.4446 30.8086 8.22317 35.2444 3.63331C39.5372 8.15145 42.7791 13.4402 44.8963 19.2943C44.8964 19.362 44.8994 19.4475 44.9751 19.5302C45.252 20.37 45.3925 21.4213 45.3925 22.4747C45.3925 28.0415 40.8117 32.6224 35.2448 32.6224C29.6774 32.6224 25.0971 28.1124 25.0971 22.5464C25.0998 21.5582 25.2413 20.571 25.4514 19.5823Z" />
<path d="M69.0499 47.3594C68.9734 47.0235 68.6618 46.8135 68.2299 46.7103C68.2291 46.7101 68.2283 46.7099 68.2275 46.7097L68.2272 46.7096L68.2263 46.7094L51.4256 42.221L58.5799 37.7793V40.1316C58.5799 40.3598 58.7201 40.5653 58.9253 40.7109C59.1314 40.8571 59.4101 40.9488 59.7062 40.9488C60.0023 40.9488 60.281 40.8571 60.4871 40.7109C60.6923 40.5653 60.8325 40.3598 60.8325 40.1316V35.7547C60.8325 35.5265 60.6923 35.321 60.4871 35.1754C60.281 35.0292 60.0023 34.9375 59.7062 34.9375H53.5373C53.2412 34.9375 52.9625 35.0292 52.7564 35.1754C52.5512 35.321 52.411 35.5265 52.411 35.7547C52.411 35.983 52.5512 36.1885 52.7564 36.3341C52.9625 36.4803 53.2412 36.572 53.5373 36.572H57.0718L48.9903 41.5231L35.2608 37.8574L35.2591 37.857C35.0348 37.8039 34.7434 37.8046 34.455 37.8563L34.455 37.856L34.4497 37.8575L20.7198 41.5738L11.5248 36.1035L11.5246 36.1034C11.2985 35.9699 11.0013 35.9187 10.7174 35.9383C10.4339 35.9578 10.1536 36.0488 9.96355 36.2108C9.771 36.375 9.69176 36.5972 9.72147 36.814C9.75108 37.0299 9.88782 37.2344 10.1149 37.3685L10.1152 37.3686L18.3509 42.1719L1.69562 46.6591C1.69531 46.6592 1.69501 46.6593 1.69471 46.6593C1.24845 46.7658 1.01608 47.0338 0.939176 47.3591L0.9375 47.3662V47.3735C0.9375 47.7095 1.1764 47.9779 1.54289 48.1351L1.54284 48.1353L1.54639 48.1365L34.4413 59.9577L34.4416 59.9578L34.448 59.96C34.5893 60.0102 34.7367 60.0625 34.9587 60.0625C35.1114 60.0625 35.3302 60.0094 35.4758 59.9578L35.476 59.9577L68.4426 48.1365L68.4426 48.1367L68.4461 48.1351C68.6278 48.0572 68.7964 47.952 68.9112 47.8234C69.0269 47.6938 69.0914 47.5356 69.0499 47.3594ZM34.5082 51.8047L34.5081 51.8049L34.5132 51.8073C34.7358 51.9126 34.9561 51.9651 35.25 51.9651C35.5409 51.9651 35.7679 51.9127 35.9945 51.7544L49.5057 43.4184L65.0269 47.5846L34.8909 58.376L4.82819 47.5849L20.2792 43.4185L34.5082 51.8047ZM22.7871 42.7694L34.8909 39.4922L47.0698 42.7707L35.2438 50.0691L22.7871 42.7694Z" />
</g>
</svg>
