<svg width="81" height="17" viewBox="0 0 81 17" fill="none" xmlns="http://www.w3.org/2000/svg">
<path d="M8.5 0L10.4084 5.87336L16.584 5.87336L11.5878 9.50329L13.4962 15.3766L8.5 11.7467L3.50383 15.3766L5.41219 9.50329L0.416019 5.87336L6.59163 5.87336L8.5 0Z" fill="#FFB906"/>
<path d="M24.5 0L26.4084 5.87336L32.584 5.87336L27.5878 9.50329L29.4962 15.3766L24.5 11.7467L19.5038 15.3766L21.4122 9.50329L16.416 5.87336L22.5916 5.87336L24.5 0Z" fill="#FFB906"/>
<path d="M40.5 0L42.4084 5.87336H48.584L43.5878 9.50329L45.4962 15.3766L40.5 11.7467L35.5038 15.3766L37.4122 9.50329L32.416 5.87336H38.5916L40.5 0Z" fill="#FFB906"/>
<path d="M56.5 0L58.4084 5.87336L64.584 5.87336L59.5878 9.50329L61.4962 15.3766L56.5 11.7467L51.5038 15.3766L53.4122 9.50329L48.416 5.87336L54.5916 5.87336L56.5 0Z" fill="#FFB906"/>
<path d="M72.5 0L74.4084 5.87336L80.584 5.87336L75.5878 9.50329L77.4962 15.3766L72.5 11.7467L67.5038 15.3766L69.4122 9.50329L64.416 5.87336L70.5916 5.87336L72.5 0Z" fill="#FFB906"/>
</svg>
