<svg width="161" height="161" viewBox="0 0 161 161" fill="none" xmlns="http://www.w3.org/2000/svg">

<g fill="#017186">
    <path d="M80.5018 155.441C121.89 155.441 155.441 121.889 155.441 80.5013C155.441 39.1135 121.89 5.56201 80.5018 5.56201C39.114 5.56201 5.5625 39.1135 5.5625 80.5013C5.5625 121.889 39.114 155.441 80.5018 155.441Z" />
    <path d="M80.5014 161C58.9999 161 38.7842 152.625 23.5781 137.422C8.37462 122.219 0 102.003 0 80.5014C0 58.9999 8.37462 38.7815 23.5781 23.5781C38.7815 8.37462 58.9971 0 80.5014 0C102.006 0 122.219 8.37462 137.425 23.5781C152.628 38.7815 161.003 58.9971 161.003 80.5014C161.003 102.006 152.628 122.219 137.425 137.425C122.221 152.628 102.006 161.003 80.5014 161.003V161ZM80.5014 1.36795C59.3637 1.36795 39.4928 9.6003 24.5466 24.5466C9.6003 39.4928 1.36795 59.3637 1.36795 80.5014C1.36795 101.639 9.6003 121.51 24.5466 136.456C39.4928 151.402 59.3637 159.635 80.5014 159.635C101.639 159.635 121.51 151.402 136.456 136.456C151.402 121.51 159.635 101.639 159.635 80.5014C159.635 59.3637 151.402 39.4928 136.456 24.5466C121.51 9.6003 101.639 1.36795 80.5014 1.36795Z" />
</g>
<g fill="white">
    <path d="M65.1867 57.3749C65.6929 57.8948 66.3933 58.1547 67.2879 58.1547C68.6449 58.1547 69.5833 57.4898 70.1059 56.1602C70.6257 54.8305 70.8555 52.7813 70.7981 50.0071C70.3056 50.9893 69.5122 51.7691 68.4151 52.3463C67.318 52.9236 66.0595 53.2136 64.645 53.2136C61.8133 53.2136 59.5672 52.3463 57.9065 50.6145C56.2458 48.8799 55.4141 46.3957 55.4141 43.1619C55.4141 41.0525 55.8545 39.203 56.7355 37.6162C57.6165 36.0266 58.8805 34.7927 60.5275 33.9118C62.1745 33.0308 64.1389 32.5903 66.4206 32.5903C69.5396 32.5903 71.9745 33.2415 73.7228 34.541C75.471 35.8406 76.683 37.6107 77.3615 39.8487C78.04 42.0867 78.3793 44.8116 78.3793 48.0181C78.3793 53.624 77.5339 57.8482 75.8431 60.6936C74.1523 63.5389 71.2987 64.9616 67.2852 64.9616C65.0034 64.9616 63.0445 64.4992 61.4139 63.5745C59.7806 62.6498 58.533 61.4378 57.6657 59.9357C56.7984 58.4337 56.3087 56.8004 56.1938 55.0385H64.1662C64.3386 56.0781 64.6778 56.8578 65.184 57.3777L65.1867 57.3749ZM69.3043 40.8227C68.7106 40.2153 67.8515 39.9116 66.727 39.9116C65.6874 39.9116 64.8639 40.1934 64.2565 40.757C63.6491 41.3206 63.3455 42.166 63.3455 43.2932C63.3455 44.4204 63.6546 45.1919 64.2784 45.7856C64.8995 46.3793 65.7312 46.6748 66.7708 46.6748C67.753 46.6748 68.5683 46.3875 69.2195 45.8075C69.8706 45.2302 70.1934 44.4204 70.1934 43.3808C70.1934 42.2837 69.898 41.4301 69.3043 40.8254V40.8227Z" />
    <path d="M80.4062 48.9701C80.4062 44.2042 81.424 40.4259 83.4623 37.638C85.4978 34.8501 88.6687 33.4575 92.975 33.4575C97.2813 33.4575 100.458 34.8583 102.507 37.6599C104.559 40.4614 105.585 44.2315 105.585 48.9701C105.585 53.7087 104.559 57.5226 102.507 60.3241C100.455 63.1257 97.2786 64.5265 92.975 64.5265C88.6714 64.5265 85.5005 63.1257 83.4623 60.3241C81.4267 57.5226 80.4062 53.7388 80.4062 48.9701ZM97.1746 48.9701C97.1746 46.6008 96.8928 44.7678 96.3292 43.4655C95.7656 42.1659 94.6467 41.5148 92.9723 41.5148C91.2979 41.5148 90.1762 42.1659 89.6153 43.4655C89.0517 44.765 88.7699 46.6008 88.7699 48.9701C88.7699 51.3394 89.0517 53.2162 89.6153 54.5158C90.1789 55.8154 91.2979 56.4665 92.9723 56.4665C94.6467 56.4665 95.7684 55.8154 96.3292 54.5158C96.8928 53.2162 97.1746 51.3668 97.1746 48.9701Z" />
    <path d="M39.9248 98.7441C40.5869 99.4473 40.918 100.449 40.918 101.751V107.206H38.981V101.956C38.981 101.141 38.7758 100.509 38.3681 100.063C37.9605 99.6169 37.3996 99.3926 36.6855 99.3926C35.9277 99.3926 35.3231 99.6333 34.8771 100.115C34.4284 100.596 34.2068 101.302 34.2068 102.23V107.209H32.2698V101.959C32.2698 101.144 32.0646 100.512 31.6569 100.066C31.2493 99.6169 30.6884 99.3953 29.9743 99.3953C29.2165 99.3953 28.6119 99.636 28.1659 100.118C27.7172 100.599 27.4956 101.305 27.4956 102.232V107.212H25.5586V97.8495H27.4956V99.8029C27.7336 99.1244 28.1303 98.6019 28.6857 98.2407C29.2411 97.8796 29.8923 97.6963 30.6392 97.6963C31.3861 97.6963 32.0974 97.8878 32.6692 98.2736C33.241 98.6593 33.6569 99.2147 33.9168 99.9397C34.1877 99.2366 34.6254 98.6894 35.2246 98.2927C35.8237 97.896 36.505 97.699 37.2628 97.699C38.3736 97.699 39.26 98.0492 39.9221 98.7524L39.9248 98.7441Z" />
    <path d="M49.9068 98.3009C50.6318 98.6867 51.1981 99.2421 51.6058 99.9671C52.0134 100.692 52.2186 101.543 52.2186 102.517C52.2186 103.491 52.0134 104.358 51.6058 105.083C51.1981 105.808 50.6318 106.364 49.9068 106.749C49.1818 107.135 48.3665 107.327 47.4609 107.327C46.5553 107.327 45.7427 107.135 45.0232 106.749C44.3036 106.364 43.7373 105.806 43.3242 105.075C42.9111 104.345 42.7031 103.491 42.7031 102.517C42.7031 101.543 42.9111 100.692 43.3242 99.9671C43.7373 99.2421 44.3036 98.6867 45.0232 98.3009C45.7427 97.9151 46.5553 97.7236 47.4609 97.7236C48.3665 97.7236 49.1818 97.9151 49.9068 98.3009ZM46.0847 99.7455C45.6661 99.9725 45.3296 100.32 45.0724 100.791C44.818 101.261 44.6894 101.836 44.6894 102.514C44.6894 103.193 44.818 103.784 45.0724 104.246C45.3269 104.711 45.6634 105.056 46.0847 105.283C46.5033 105.51 46.9629 105.622 47.4609 105.622C47.9588 105.622 48.4184 105.51 48.837 105.283C49.2556 105.056 49.5921 104.711 49.8493 104.246C50.1038 103.781 50.2323 103.204 50.2323 102.514C50.2323 101.825 50.1038 101.261 49.8493 100.791C49.5949 100.32 49.2584 99.9725 48.837 99.7455C48.4184 99.5184 47.9588 99.4062 47.4609 99.4062C46.9629 99.4062 46.5033 99.5184 46.0847 99.7455Z" />
    <path d="M61.938 98.7444C62.5946 99.4476 62.9229 100.449 62.9229 101.751V107.207H60.9859V101.956C60.9859 101.119 60.7698 100.471 60.3402 100.011C59.9107 99.5515 59.3197 99.3245 58.5728 99.3245C57.8259 99.3245 57.1857 99.5707 56.7206 100.063C56.2555 100.556 56.023 101.278 56.023 102.23V107.209H54.0859V97.8471H56.023V99.9017C56.2719 99.1986 56.6905 98.6569 57.2815 98.2711C57.8697 97.8854 58.5509 97.6938 59.3197 97.6938C60.4059 97.6938 61.2786 98.044 61.9353 98.7472L61.938 98.7444Z" />
    <path d="M73.816 102.905H66.6124C66.6452 103.868 66.9133 104.582 67.4113 105.045C67.9092 105.51 68.5275 105.742 69.2635 105.742C69.9092 105.742 70.4563 105.578 70.9023 105.25C71.351 104.922 71.6246 104.484 71.7258 103.942H73.7996C73.6738 104.599 73.4139 105.182 73.0172 105.693C72.6204 106.202 72.1061 106.601 71.4714 106.891C70.8366 107.181 70.128 107.324 69.3483 107.324C68.4427 107.324 67.6411 107.132 66.9434 106.746C66.2458 106.361 65.7013 105.805 65.3046 105.08C64.9079 104.355 64.7109 103.499 64.7109 102.514C64.7109 101.529 64.9079 100.689 65.3046 99.9642C65.7013 99.2391 66.2485 98.6837 66.9434 98.298C67.6411 97.9122 68.44 97.7207 69.3483 97.7207C70.2566 97.7207 71.0665 97.9095 71.7532 98.2898C72.4371 98.6701 72.9652 99.1899 73.3345 99.852C73.7039 100.514 73.8872 101.253 73.8872 102.068C73.8872 102.385 73.8653 102.662 73.8188 102.9L73.816 102.905ZM71.6164 100.484C71.3838 100.071 71.0665 99.7644 70.6643 99.5674C70.2621 99.3705 69.8243 99.2692 69.3483 99.2692C68.5905 99.2692 67.9557 99.5018 67.4441 99.9669C66.9352 100.432 66.6562 101.116 66.6124 102.022H71.931C71.9529 101.409 71.8489 100.897 71.6164 100.484Z" />
    <path d="M76.8586 97.8413L79.663 104.722L82.2621 97.8413H84.4207L78.7628 111.655H76.6042L78.626 106.982L74.6836 97.8413H76.8586Z" />
    <path d="M91.3645 100.238V101.868H84.3633V100.238H91.3645Z" />
    <path d="M101.843 98.3012C102.483 98.6869 102.984 99.2423 103.348 99.9673C103.709 100.692 103.892 101.543 103.892 102.517C103.892 103.491 103.712 104.358 103.348 105.083C102.987 105.809 102.483 106.364 101.843 106.75C101.203 107.135 100.475 107.327 99.6597 107.327C98.8444 107.327 98.0838 107.116 97.4846 106.698C96.8854 106.279 96.4641 105.724 96.2261 105.032V107.207H94.2891V94.6323H96.2261V100.019C96.4641 99.3299 96.8827 98.7745 97.4846 98.3532C98.0838 97.9346 98.8088 97.7239 99.6597 97.7239C100.511 97.7239 101.203 97.9154 101.843 98.3012ZM97.6022 99.8059C97.1727 100.06 96.8307 100.424 96.5818 100.892C96.3328 101.363 96.2069 101.904 96.2069 102.514C96.2069 103.125 96.3328 103.68 96.5818 104.145C96.8307 104.61 97.17 104.969 97.6022 105.223C98.0345 105.477 98.5188 105.606 99.0632 105.606C99.925 105.606 100.614 105.332 101.137 104.783C101.657 104.233 101.92 103.478 101.92 102.514C101.92 101.551 101.66 100.81 101.137 100.255C100.617 99.6992 99.925 99.4229 99.0632 99.4229C98.5188 99.4229 98.0318 99.5515 97.6022 99.8059Z" />
    <path d="M111.689 98.3529C112.288 98.7715 112.715 99.3269 112.964 100.019V97.844H114.901V107.206H112.964V105.031C112.715 105.723 112.291 106.279 111.689 106.697C111.09 107.116 110.365 107.327 109.514 107.327C108.663 107.327 107.971 107.135 107.33 106.749C106.69 106.364 106.19 105.808 105.826 105.083C105.462 104.358 105.281 103.502 105.281 102.517C105.281 101.532 105.462 100.692 105.826 99.9671C106.187 99.2421 106.69 98.6867 107.33 98.3009C107.971 97.9151 108.698 97.7236 109.514 97.7236C110.329 97.7236 111.087 97.9343 111.689 98.3529ZM108.045 100.249C107.53 100.799 107.27 101.554 107.27 102.517C107.27 103.48 107.527 104.235 108.045 104.785C108.559 105.335 109.248 105.609 110.11 105.609C110.655 105.609 111.142 105.48 111.571 105.225C112.001 104.971 112.34 104.61 112.592 104.148C112.843 103.685 112.966 103.138 112.966 102.517C112.966 101.896 112.841 101.365 112.592 100.895C112.343 100.424 112.003 100.063 111.571 99.8084C111.142 99.554 110.655 99.4254 110.11 99.4254C109.248 99.4254 108.562 99.699 108.045 100.249Z" />
    <path d="M124.394 98.6839C125.188 99.3241 125.68 100.194 125.872 101.291H123.817C123.705 100.703 123.428 100.241 122.993 99.9069C122.558 99.5731 122.011 99.4062 121.355 99.4062C120.608 99.4062 119.984 99.6689 119.486 100.197C118.988 100.725 118.739 101.496 118.739 102.517C118.739 103.537 118.988 104.312 119.486 104.845C119.984 105.379 120.608 105.644 121.355 105.644C122.011 105.644 122.558 105.474 122.993 105.135C123.428 104.796 123.705 104.331 123.817 103.743H125.872C125.68 104.842 125.185 105.712 124.394 106.358C123.601 107.004 122.599 107.327 121.387 107.327C120.482 107.327 119.68 107.135 118.983 106.749C118.285 106.364 117.74 105.808 117.344 105.083C116.947 104.358 116.75 103.502 116.75 102.517C116.75 101.532 116.947 100.692 117.344 99.9671C117.74 99.2421 118.288 98.6867 118.983 98.3009C119.68 97.9151 120.479 97.7236 121.387 97.7236C122.599 97.7236 123.601 98.0437 124.394 98.6839Z" />
    <path d="M133.044 107.204L129.679 103.04V107.204H127.742V94.6294H129.679V101.833L133.009 97.8413H135.337L131.258 102.498L135.438 107.204H133.042H133.044Z" />
    <path d="M41.6067 113.876C42.2059 114.295 42.6327 114.85 42.8817 115.543V113.367H44.8187V122.831C44.8187 123.704 44.6408 124.475 44.2824 125.151C43.9268 125.824 43.4124 126.355 42.7449 126.741C42.0773 127.126 41.2839 127.318 40.3674 127.318C39.0541 127.318 37.9926 127.006 37.1828 126.382C36.3729 125.758 35.8668 124.916 35.6616 123.851H37.5822C37.7409 124.407 38.0473 124.839 38.4987 125.151C38.9529 125.463 39.5302 125.619 40.2306 125.619C40.9993 125.619 41.6341 125.381 42.1347 124.905C42.6327 124.429 42.8817 123.737 42.8817 122.831V120.555C42.6327 121.247 42.2086 121.802 41.6067 122.221C41.0076 122.639 40.2825 122.85 39.4317 122.85C38.5808 122.85 37.8886 122.659 37.2484 122.273C36.6082 121.887 36.1075 121.332 35.7437 120.607C35.3798 119.882 35.1992 119.025 35.1992 118.04C35.1992 117.055 35.3798 116.216 35.7437 115.491C36.1048 114.766 36.6082 114.21 37.2484 113.824C37.8886 113.439 38.6164 113.247 39.4317 113.247C40.247 113.247 41.0048 113.458 41.6067 113.876ZM37.9625 115.772C37.4481 116.322 37.1882 117.077 37.1882 118.04C37.1882 119.003 37.4454 119.759 37.9625 120.308C38.4768 120.858 39.1663 121.132 40.0281 121.132C40.5725 121.132 41.0595 121.003 41.4891 120.749C41.9186 120.494 42.2579 120.133 42.5096 119.671C42.7585 119.206 42.8844 118.661 42.8844 118.04C42.8844 117.419 42.7585 116.889 42.5096 116.418C42.2606 115.947 41.9213 115.586 41.4891 115.332C41.0595 115.077 40.5725 114.949 40.0281 114.949C39.1663 114.949 38.4796 115.222 37.9625 115.772Z" />
    <path d="M55.7776 113.368V122.73H53.8242V120.692C53.5862 121.384 53.173 121.917 52.5848 122.298C51.9966 122.678 51.3099 122.867 50.5301 122.867C49.444 122.867 48.5712 122.517 47.9146 121.813C47.258 121.11 46.9297 120.109 46.9297 118.807V113.37H48.8667V118.604C48.8667 119.455 49.0828 120.109 49.5124 120.566C49.9419 121.025 50.5329 121.255 51.2798 121.255C52.0267 121.255 52.6669 121.006 53.132 120.508C53.5971 120.01 53.8296 119.285 53.8296 118.333V113.373H55.7831L55.7776 113.368Z" />
    <path d="M64.0364 113.876C64.6356 114.295 65.0624 114.85 65.3113 115.543V113.367H67.2484V122.73H65.3113V120.555C65.0624 121.247 64.6383 121.802 64.0364 122.221C63.4372 122.639 62.7122 122.85 61.8614 122.85C61.0105 122.85 60.3183 122.659 59.6781 122.273C59.0379 121.887 58.5372 121.332 58.1734 120.607C57.8095 119.882 57.6289 119.025 57.6289 118.04C57.6289 117.055 57.8095 116.216 58.1734 115.491C58.5345 114.766 59.0379 114.21 59.6781 113.824C60.3183 113.439 61.0461 113.247 61.8614 113.247C62.6767 113.247 63.4345 113.458 64.0364 113.876ZM60.3922 115.772C59.8778 116.322 59.6179 117.077 59.6179 118.04C59.6179 119.003 59.8751 119.759 60.3922 120.308C60.9065 120.858 61.596 121.132 62.4578 121.132C63.0022 121.132 63.4892 121.003 63.9188 120.749C64.3483 120.494 64.6876 120.133 64.9393 119.671C65.1882 119.206 65.3141 118.661 65.3141 118.04C65.3141 117.419 65.1882 116.889 64.9393 116.418C64.6903 115.947 64.351 115.586 63.9188 115.332C63.4892 115.077 63.0022 114.949 62.4578 114.949C61.596 114.949 60.9093 115.222 60.3922 115.772Z" />
    <path d="M72.871 113.751C73.4592 113.395 74.1404 113.214 74.9092 113.214V115.321H74.332C73.4811 115.321 72.7999 115.529 72.2855 115.942C71.7711 116.355 71.5112 117.039 71.5112 117.989V122.73H69.5742V113.368H71.5112V115.203C71.8286 114.591 72.2828 114.106 72.871 113.751Z" />
    <path d="M82.2864 113.876C82.8856 114.295 83.3124 114.85 83.5613 115.543V113.367H85.4984V122.73H83.5613V120.555C83.3124 121.247 82.8883 121.802 82.2864 122.221C81.6872 122.639 80.9622 122.85 80.1114 122.85C79.2605 122.85 78.5683 122.659 77.9281 122.273C77.2879 121.887 76.7872 121.332 76.4233 120.607C76.0595 119.882 75.8789 119.025 75.8789 118.04C75.8789 117.055 76.0595 116.216 76.4233 115.491C76.7845 114.766 77.2879 114.21 77.9281 113.824C78.5683 113.439 79.2961 113.247 80.1114 113.247C80.9267 113.247 81.6845 113.458 82.2864 113.876ZM78.6422 115.772C78.1278 116.322 77.8679 117.077 77.8679 118.04C77.8679 119.003 78.1251 119.759 78.6422 120.308C79.1565 120.858 79.846 121.132 80.7078 121.132C81.2522 121.132 81.7392 121.003 82.1688 120.749C82.5983 120.494 82.9376 120.133 83.1893 119.671C83.441 119.209 83.5641 118.661 83.5641 118.04C83.5641 117.419 83.4382 116.889 83.1893 116.418C82.9403 115.947 82.601 115.586 82.1688 115.332C81.7392 115.077 81.2522 114.949 80.7078 114.949C79.846 114.949 79.1593 115.222 78.6422 115.772Z" />
    <path d="M95.6763 114.268C96.3329 114.971 96.6612 115.972 96.6612 117.275V122.73H94.7242V117.48C94.7242 116.643 94.508 115.994 94.0785 115.535C93.649 115.075 93.058 114.848 92.3111 114.848C91.5642 114.848 90.924 115.094 90.4589 115.587C89.9938 116.079 89.7612 116.801 89.7612 117.753V122.733H87.8242V113.37H89.7612V115.425C90.0102 114.722 90.4288 114.18 91.0198 113.795C91.608 113.409 92.2892 113.217 93.058 113.217C94.1469 113.217 95.0169 113.567 95.6735 114.271L95.6763 114.268Z" />
    <path d="M103.627 121.047V122.73H102.436C101.441 122.73 100.683 122.489 100.168 122.007C99.654 121.526 99.3941 120.724 99.3941 119.602V115.014H98.0508V113.367H99.3941V111.039H101.348V113.367H103.607V115.014H101.348V119.635C101.348 120.169 101.446 120.535 101.646 120.741C101.843 120.946 102.193 121.047 102.691 121.047H103.627Z" />
    <path d="M114.074 118.432H106.87C106.903 119.395 107.171 120.109 107.669 120.571C108.167 121.036 108.785 121.269 109.521 121.269C110.167 121.269 110.714 121.105 111.16 120.776C111.606 120.448 111.882 120.01 111.984 119.469H114.057C113.932 120.125 113.672 120.708 113.275 121.22C112.878 121.728 112.364 122.128 111.729 122.418C111.094 122.708 110.386 122.85 109.606 122.85C108.701 122.85 107.899 122.659 107.201 122.273C106.504 121.887 105.959 121.332 105.562 120.607C105.166 119.882 104.969 119.025 104.969 118.04C104.969 117.055 105.166 116.216 105.562 115.491C105.959 114.766 106.506 114.21 107.201 113.824C107.899 113.439 108.698 113.247 109.606 113.247C110.514 113.247 111.324 113.436 112.011 113.816C112.695 114.196 113.223 114.716 113.592 115.378C113.959 116.04 114.145 116.779 114.145 117.594C114.145 117.912 114.123 118.188 114.077 118.426L114.074 118.432ZM111.874 116.01C111.642 115.597 111.324 115.291 110.922 115.094C110.52 114.897 110.082 114.796 109.606 114.796C108.848 114.796 108.214 115.028 107.702 115.493C107.193 115.958 106.914 116.642 106.87 117.548H112.189C112.211 116.935 112.107 116.423 111.874 116.01Z" />
    <path d="M124.644 118.432H117.441C117.473 119.395 117.741 120.109 118.239 120.571C118.737 121.036 119.356 121.269 120.092 121.269C120.737 121.269 121.284 121.105 121.73 120.776C122.176 120.448 122.453 120.01 122.554 119.469H124.628C124.502 120.125 124.242 120.708 123.845 121.22C123.449 121.728 122.934 122.128 122.299 122.418C121.665 122.708 120.956 122.85 120.176 122.85C119.271 122.85 118.469 122.659 117.772 122.273C117.074 121.887 116.529 121.332 116.133 120.607C115.736 119.882 115.539 119.025 115.539 118.04C115.539 117.055 115.736 116.216 116.133 115.491C116.529 114.766 117.077 114.21 117.772 113.824C118.469 113.439 119.268 113.247 120.176 113.247C121.085 113.247 121.895 113.436 122.581 113.816C123.265 114.196 123.793 114.716 124.163 115.378C124.529 116.04 124.715 116.779 124.715 117.594C124.715 117.912 124.693 118.188 124.647 118.426L124.644 118.432ZM122.445 116.01C122.212 115.597 121.895 115.291 121.492 115.094C121.09 114.897 120.652 114.796 120.176 114.796C119.419 114.796 118.784 115.028 118.272 115.493C117.763 115.958 117.484 116.642 117.441 117.548H122.759C122.781 116.935 122.677 116.423 122.445 116.01Z" />
    <path d="M71.7759 83.0403C70.9058 84.5532 69.6665 85.7434 68.0578 86.6079C66.4518 87.4725 64.564 87.9047 62.3944 87.9047H54.2031V67.9463H62.3944C64.5613 67.9463 66.4545 68.3649 68.0714 69.2021C69.6884 70.0393 70.9277 71.2075 71.7895 72.7122C72.6514 74.217 73.0809 75.9351 73.0809 77.8722C73.0809 79.8092 72.6459 81.5328 71.7731 83.0458L71.7759 83.0403ZM65.8499 81.6176C66.8184 80.7339 67.3027 79.4836 67.3027 77.8694C67.3027 76.2552 66.8184 75.0268 65.8499 74.1349C64.8814 73.243 63.5545 72.797 61.8719 72.797H59.9266V82.9473H61.8719C63.5572 82.9473 64.8814 82.5068 65.8499 81.6231V81.6176Z" />
    <path d="M85.7171 84.5778H78.4286L77.2959 87.9047H71.2852L78.8062 68.0283H85.3997L92.8934 87.9047H86.8525L85.7198 84.5778H85.7171ZM84.2944 80.4056L82.0865 73.9215L79.8513 80.4056H84.2944Z" />
    <path d="M106.794 67.9434L99.5326 81.56V87.9018H93.8392V81.56L86.5781 67.9434H93.1142L96.7448 75.5547L100.345 67.9434H106.794Z" />
</g>

<defs>

</defs>
</svg>
