<svg width="119" height="35" viewBox="0 0 119 35" fill="none" xmlns="http://www.w3.org/2000/svg">
<g clip-path="url(#clip0_113_1003)">
<path d="M18.8557 0.727914V22.4C18.8557 22.8015 18.5247 23.1279 18.1153 23.1279H14.8843C14.4748 23.1279 14.1439 22.8015 14.1439 22.4V14.6034C14.1439 14.2018 13.8129 13.8755 13.4035 13.8755H5.45432C5.04487 13.8755 4.71392 14.2018 4.71392 14.6034V22.4C4.71392 22.8015 4.38297 23.1279 3.97353 23.1279H0.740395C0.33095 23.1279 0 22.8015 0 22.4V0.727914C0 0.32638 0.33095 0 0.740395 0H3.9714C4.38085 0 4.7118 0.32638 4.7118 0.727914V8.52454C4.7118 8.92607 5.04275 9.25245 5.4522 9.25245H13.3971C13.8066 9.25245 14.1375 8.92607 14.1375 8.52454V0.727914C14.1375 0.32638 14.4685 0 14.8779 0H18.1089C18.5184 0 18.8493 0.32638 18.8493 0.727914H18.8557Z" fill="#010101"/>
<path d="M39.1918 19.2949V22.4664C39.1918 22.8679 38.8608 23.1943 38.4514 23.1943H22.256C21.8466 23.1943 21.5156 22.8679 21.5156 22.4664V0.79432C21.5156 0.392787 21.8466 0.0664062 22.256 0.0664062H38.4514C38.8608 0.0664062 39.1918 0.392787 39.1918 0.79432V3.96579C39.1918 4.36733 38.8608 4.69371 38.4514 4.69371H26.9699C26.5605 4.69371 26.2295 5.02009 26.2295 5.42162V8.59309C26.2295 8.99463 26.5605 9.32101 26.9699 9.32101H36.0944C36.5039 9.32101 36.8348 9.64739 36.8348 10.0489V13.2204C36.8348 13.6219 36.5039 13.9483 36.0944 13.9483H26.9699C26.5605 13.9483 26.2295 14.2747 26.2295 14.6762V17.8477C26.2295 18.2492 26.5605 18.5756 26.9699 18.5756H38.4514C38.8608 18.5756 39.1918 18.902 39.1918 19.3035V19.2949Z" fill="#010101"/>
<path d="M59.9661 5.94785C59.9661 6.98282 59.9767 7.97485 60 8.92178C60.0213 9.86871 59.9767 10.8715 59.8664 11.9279C59.7985 12.5012 59.6479 12.9844 59.4124 13.3816C59.1769 13.7788 58.812 14.131 58.3177 14.438C57.8234 14.7687 57.3291 14.9512 56.8369 14.9834C56.7224 14.992 56.6036 14.9985 56.4869 15.0049C55.9417 15.0328 55.6171 15.6147 55.8823 16.085L59.2554 22.05C59.5291 22.5353 59.1727 23.1301 58.6062 23.1301H54.9149C54.6454 23.1301 54.3972 22.9862 54.2657 22.7564L50.1097 15.4107C49.9782 15.1788 49.73 15.0371 49.4606 15.0371H46.9678C46.5584 15.0371 46.2274 15.3635 46.2274 15.765V22.4043C46.2274 22.8058 45.8965 23.1322 45.487 23.1322H42.256C41.8466 23.1322 41.5156 22.8058 41.5156 22.4043V0.727914C41.5156 0.32638 41.8466 0 42.256 0H56.1623C56.7012 0 57.1997 0.0944785 57.6601 0.281288C58.1204 0.468098 58.5193 0.732209 58.8545 1.07362C59.1918 1.41503 59.4612 1.81227 59.6627 2.26319C59.8643 2.71411 59.9661 3.20368 59.9661 3.73405V5.94785ZM54.41 10.4077C54.8194 10.4077 55.1504 10.0813 55.1504 9.67976V5.35307C55.1504 4.95153 54.8194 4.62515 54.41 4.62515H46.9699C46.5605 4.62515 46.2295 4.95153 46.2295 5.35307V9.67976C46.2295 10.0813 46.5605 10.4077 46.9699 10.4077H54.41Z" fill="#010101"/>
<path d="M63.4946 0.646161C63.6049 0.300455 63.9252 0.0664062 64.2838 0.0664062H79.7811C80.1906 0.0664062 80.5215 0.392787 80.5215 0.79432V4.41671C80.5215 4.59493 80.4558 4.76671 80.3348 4.89984L69.0868 17.3603C68.6625 17.8305 69.0019 18.5692 69.6426 18.5692H79.7811C80.1906 18.5692 80.5215 18.8955 80.5215 19.2971V22.4686C80.5215 22.8701 80.1906 23.1965 79.7811 23.1965H62.4084C61.9989 23.1965 61.668 22.8701 61.668 22.4686V18.8462C61.668 18.6679 61.7337 18.4962 61.8547 18.363L73.1324 5.9026C73.5567 5.43236 73.2173 4.69156 72.5787 4.69156H63.0257C62.6184 4.69156 62.3278 4.28788 62.455 3.89708L63.4988 0.648308L63.4946 0.646161Z" fill="#010101"/>
<path d="M107.181 5.84726C107.181 6.88223 107.202 7.90647 107.249 8.91996C107.294 9.93346 107.26 10.9577 107.147 11.9927C107.103 12.566 106.956 13.0491 106.71 13.4463C106.462 13.8436 106.093 14.2065 105.599 14.5371C105.104 14.8463 104.61 15.016 104.118 15.0503C103.624 15.0825 103.119 15.0997 102.603 15.0997H94.5224C94.1129 15.0997 93.782 15.4261 93.782 15.8276V22.4669C93.782 22.8684 93.451 23.1948 93.0416 23.1948H89.8106C89.4011 23.1948 89.0702 22.8684 89.0702 22.4669V0.794809C89.0702 0.393275 89.4011 0.0668945 89.8106 0.0668945H103.481C104.536 0.0668945 105.418 0.397569 106.125 1.05892C106.831 1.72027 107.185 2.57916 107.185 3.63561V5.84941L107.181 5.84726ZM101.727 10.4724C102.136 10.4724 102.467 10.146 102.467 9.7445V5.41781C102.467 5.01628 102.136 4.6899 101.727 4.6899H94.5224C94.1129 4.6899 93.782 5.01628 93.782 5.41781V9.7445C93.782 10.146 94.1129 10.4724 94.5224 10.4724H101.727Z" fill="#010101"/>
<path d="M119.001 0.760335V22.4324C119.001 22.834 118.67 23.1603 118.261 23.1603H115.03C114.62 23.1603 114.289 22.834 114.289 22.4324V8.26494C114.289 7.61647 113.492 7.29224 113.023 7.7496C112.736 8.03089 112.27 8.03303 111.979 7.75389L109.675 5.53794C109.38 5.25236 109.378 4.78641 109.675 4.50083L114.073 0.240703C114.211 0.105427 114.4 0.0302734 114.593 0.0302734H118.261C118.67 0.0302734 119.001 0.356654 119.001 0.758188V0.760335Z" fill="#010101"/>
<path d="M30.8673 31.2252C30.8015 31.2252 30.7421 31.1801 30.7294 31.1157C30.6912 30.9096 30.6021 30.7507 30.4642 30.6412C30.303 30.5124 30.059 30.4479 29.7344 30.4479C29.1362 30.4479 28.8392 30.6562 28.8392 31.0706C28.8392 31.2188 28.9007 31.3433 29.0259 31.4443C29.151 31.5452 29.3483 31.6268 29.622 31.6933C29.9466 31.7706 30.2266 31.8415 30.4642 31.9081C30.7018 31.9746 30.9203 32.0519 31.1176 32.1378C31.228 32.1829 31.334 32.2409 31.4337 32.3117C31.5335 32.3804 31.6162 32.4663 31.6841 32.5694C31.752 32.6725 31.8071 32.7949 31.8474 32.9387C31.8877 33.0826 31.909 33.2565 31.909 33.4605C31.909 33.7053 31.858 33.9243 31.7562 34.1133C31.6544 34.3022 31.5186 34.4633 31.3468 34.5943C31.1749 34.7252 30.9713 34.824 30.74 34.8949C30.5067 34.9636 30.2606 34.9979 30.0039 34.9979C29.2698 34.9979 28.7183 34.8541 28.3491 34.5685C28.016 34.3087 27.8251 33.9372 27.7742 33.4541C27.7657 33.3682 27.8294 33.293 27.9163 33.293H28.6525C28.7204 33.293 28.7819 33.3424 28.7904 33.4111C28.8201 33.6173 28.9219 33.7847 29.0959 33.9114C29.3017 34.0617 29.5584 34.139 29.866 34.139C30.2012 34.139 30.4536 34.0768 30.6255 33.9544C30.7973 33.832 30.8843 33.6645 30.8843 33.4541C30.8843 33.3725 30.8737 33.2973 30.8546 33.2265C30.8334 33.1578 30.7952 33.0955 30.7358 33.0375C30.6785 32.9817 30.5979 32.9301 30.4961 32.8872C30.3942 32.8443 30.2627 32.8035 30.1015 32.767C29.7175 32.6854 29.3844 32.6016 29.1022 32.5179C28.8222 32.4341 28.5888 32.3289 28.4064 32.2022C28.2239 32.0777 28.0903 31.9252 28.0033 31.7449C27.9163 31.5666 27.8739 31.3369 27.8739 31.0599C27.8739 30.8495 27.9121 30.6519 27.9885 30.4673C28.0648 30.2826 28.1815 30.1216 28.3385 29.9863C28.4955 29.851 28.6886 29.7436 28.9198 29.6642C29.151 29.5847 29.4226 29.5439 29.7366 29.5439C30.0505 29.5439 30.3136 29.5847 30.5576 29.6642C30.8015 29.7436 31.0094 29.8574 31.1834 30.0035C31.3574 30.1495 31.4931 30.3255 31.5907 30.5338C31.665 30.6949 31.7138 30.8688 31.7371 31.0556C31.7477 31.1436 31.6841 31.2209 31.5971 31.2209H30.8716L30.8673 31.2252Z" fill="#010101"/>
<path d="M38.6748 34.6802V32.3977C38.6748 32.2302 38.4393 32.198 38.3969 32.3591L37.7626 34.7167C37.7456 34.779 37.6905 34.822 37.6268 34.822H36.7952C36.7316 34.822 36.6743 34.779 36.6594 34.7167L36.0315 32.3784C35.989 32.2174 35.7536 32.2496 35.7536 32.4149V34.6781C35.7536 34.7575 35.6899 34.822 35.6114 34.822H34.9156C34.8371 34.822 34.7734 34.7575 34.7734 34.6781V29.8597C34.7734 29.7802 34.8371 29.7158 34.9156 29.7158H36.2118C36.2776 29.7158 36.3327 29.7609 36.3497 29.8253L37.0965 32.8959C37.1325 33.0419 37.3362 33.0419 37.3722 32.8959L38.119 29.8253C38.1339 29.7609 38.1911 29.7158 38.2569 29.7158H39.5234C39.6019 29.7158 39.6656 29.7802 39.6656 29.8597V34.6781C39.6656 34.7575 39.6019 34.822 39.5234 34.822H38.8191C38.7406 34.822 38.677 34.7575 38.677 34.6781L38.6748 34.6802Z" fill="#010101"/>
<path d="M46.1239 34.7208L45.8672 33.8705C45.8481 33.8104 45.793 33.7696 45.7314 33.7696H44.0767C44.0152 33.7696 43.9621 33.8083 43.943 33.8662L43.6524 34.7251C43.6333 34.7831 43.5781 34.8218 43.5187 34.8218H42.7041C42.6065 34.8218 42.5386 34.723 42.5704 34.6307L44.2697 29.8123C44.2888 29.7543 44.344 29.7178 44.4034 29.7178H45.4259C45.4853 29.7178 45.5405 29.7564 45.5596 29.8144L47.2377 34.6328C47.2695 34.7251 47.2016 34.8239 47.104 34.8239H46.2618C46.2003 34.8239 46.1451 34.7831 46.126 34.723L46.1239 34.7208ZM44.9019 30.8623H44.8934L44.3079 32.7046C44.2782 32.7969 44.3461 32.8914 44.4437 32.8914H45.339C45.4344 32.8914 45.5023 32.7969 45.4747 32.7046L44.9019 30.8623Z" fill="#010101"/>
<path d="M53.2253 34.8242C53.1468 34.8242 53.0831 34.7598 53.0831 34.6803V33.5101C53.0831 33.2653 53.028 33.0892 52.9155 32.984C52.8031 32.8788 52.5973 32.8273 52.2918 32.8273H51.3096C51.2311 32.8273 51.1674 32.8917 51.1674 32.9711V34.6825C51.1674 34.7619 51.1038 34.8263 51.0253 34.8263H50.2828C50.2043 34.8263 50.1406 34.7619 50.1406 34.6825V29.8641C50.1406 29.7846 50.2043 29.7202 50.2828 29.7202H52.7012C52.9346 29.7202 53.1446 29.7567 53.3356 29.8319C53.5265 29.907 53.6877 30.0079 53.8256 30.1389C53.9614 30.2699 54.0675 30.4267 54.1417 30.607C54.216 30.7874 54.252 30.9849 54.252 31.1954C54.252 31.4724 54.1884 31.7171 54.059 31.9297C53.9784 32.0629 53.8765 32.1702 53.7514 32.254C53.6644 32.3119 53.6665 32.4386 53.7556 32.4944C53.849 32.5546 53.9232 32.6254 53.9763 32.7092C54.0696 32.8573 54.1163 33.0806 54.1163 33.3791V34.6803C54.1163 34.7598 54.0526 34.8242 53.9741 34.8242H53.2253ZM51.1695 30.7466V31.8202C51.1695 31.8997 51.2332 31.9641 51.3117 31.9641H52.4912C52.7755 31.9641 52.9749 31.8997 53.0916 31.7708C53.2083 31.642 53.2656 31.4809 53.2656 31.2856C53.2656 31.0902 53.2083 30.9227 53.0937 30.7938C52.9792 30.665 52.7903 30.6006 52.5273 30.6006H51.3096C51.2311 30.6006 51.1674 30.665 51.1674 30.7444L51.1695 30.7466Z" fill="#010101"/>
<path d="M58.5112 34.68V30.7549C58.5112 30.6754 58.4475 30.611 58.369 30.611H57.1343C57.0558 30.611 56.9922 30.5466 56.9922 30.4672V29.8616C56.9922 29.7822 57.0558 29.7178 57.1343 29.7178H60.953C61.0315 29.7178 61.0951 29.7822 61.0951 29.8616V30.4672C61.0951 30.5466 61.0315 30.611 60.953 30.611H59.7098C59.6313 30.611 59.5677 30.6754 59.5677 30.7549V34.68C59.5677 34.7595 59.504 34.8239 59.4255 34.8239H58.6533C58.5748 34.8239 58.5112 34.7595 58.5112 34.68Z" fill="#010101"/>
<path d="M71.5495 34.8242C71.471 34.8242 71.4073 34.7598 71.4073 34.6803V33.5101C71.4073 33.2653 71.3522 33.0892 71.2397 32.984C71.1273 32.8788 70.9215 32.8273 70.616 32.8273H69.6338C69.5553 32.8273 69.4916 32.8917 69.4916 32.9711V34.6825C69.4916 34.7619 69.428 34.8263 69.3495 34.8263H68.607C68.5285 34.8263 68.4648 34.7619 68.4648 34.6825V29.8641C68.4648 29.7846 68.5285 29.7202 68.607 29.7202H71.0255C71.2588 29.7202 71.4689 29.7567 71.6598 29.8319C71.8507 29.907 72.012 30.0079 72.1498 30.1389C72.2856 30.2699 72.3917 30.4267 72.4659 30.607C72.5402 30.7874 72.5763 30.9849 72.5763 31.1954C72.5763 31.4724 72.5126 31.7171 72.3832 31.9297C72.3026 32.0629 72.2008 32.1702 72.0756 32.254C71.9886 32.3119 71.9907 32.4386 72.0798 32.4944C72.1732 32.5546 72.2474 32.6254 72.3005 32.7092C72.3938 32.8573 72.4405 33.0806 72.4405 33.3791V34.6803C72.4405 34.7598 72.3768 34.8242 72.2984 34.8242H71.5495ZM69.4938 30.7466V31.8202C69.4938 31.8997 69.5574 31.9641 69.6359 31.9641H70.8154C71.0997 31.9641 71.2991 31.8997 71.4158 31.7708C71.5325 31.642 71.5898 31.4809 71.5898 31.2856C71.5898 31.0902 71.5325 30.9227 71.4179 30.7938C71.3034 30.665 71.1146 30.6006 70.8515 30.6006H69.6338C69.5553 30.6006 69.4916 30.665 69.4916 30.7444L69.4938 30.7466Z" fill="#010101"/>
<path d="M75.465 34.68V29.8616C75.465 29.7822 75.5286 29.7178 75.6071 29.7178H76.3793C76.4578 29.7178 76.5215 29.7822 76.5215 29.8616V34.68C76.5215 34.7595 76.4578 34.8239 76.3793 34.8239H75.6071C75.5286 34.8239 75.465 34.7595 75.465 34.68Z" fill="#010101"/>
<path d="M82.5991 34.7576L80.745 31.8116C80.6686 31.6914 80.484 31.7451 80.484 31.8889V34.6825C80.484 34.7619 80.4204 34.8263 80.3419 34.8263H79.646C79.5676 34.8263 79.5039 34.7619 79.5039 34.6825V29.8641C79.5039 29.7846 79.5676 29.7202 79.646 29.7202H80.5413C80.5901 29.7202 80.6368 29.746 80.6622 29.7889L82.3637 32.5739C82.4379 32.6963 82.6267 32.6426 82.6267 32.4987V29.8641C82.6267 29.7846 82.6904 29.7202 82.7689 29.7202H83.4732C83.5517 29.7202 83.6153 29.7846 83.6153 29.8641V34.6825C83.6153 34.7619 83.5517 34.8263 83.4732 34.8263H82.7201C82.6713 34.8263 82.6267 34.8006 82.6013 34.7598L82.5991 34.7576Z" fill="#010101"/>
<path d="M90.3517 34.6867C90.3453 34.5686 90.2074 34.5042 90.1183 34.5836C90.0165 34.6759 89.8935 34.7532 89.7492 34.8177C89.4798 34.9379 89.1722 34.998 88.8221 34.998C88.4721 34.998 88.1581 34.9229 87.8759 34.7704C87.5959 34.6201 87.354 34.4161 87.1546 34.1628C86.9552 33.9094 86.8025 33.6174 86.6943 33.2867C86.5882 32.956 86.5352 32.6146 86.5352 32.2603C86.5352 31.8867 86.5882 31.5345 86.6943 31.2039C86.8003 30.8732 86.9573 30.5855 87.1652 30.3385C87.3731 30.0916 87.632 29.8983 87.9396 29.7588C88.2472 29.6192 88.6078 29.5483 89.0173 29.5483C89.3164 29.5483 89.5964 29.5913 89.8574 29.6793C90.1183 29.7674 90.3453 29.8876 90.5405 30.0401C90.7357 30.1947 90.8927 30.3772 91.0115 30.5898C91.1027 30.7551 91.1663 30.9312 91.1982 31.1223C91.213 31.2103 91.1472 31.2919 91.0581 31.2919H90.2711C90.2096 31.2919 90.1523 31.2511 90.1353 31.191C90.1141 31.1094 90.0801 31.0321 90.0335 30.9591C89.9677 30.8539 89.885 30.7637 89.7831 30.6864C89.658 30.5898 89.5073 30.5189 89.3291 30.4717C89.2528 30.4502 89.1743 30.4394 89.0958 30.4352C88.6333 30.4137 88.2663 30.5747 87.9947 30.914C87.738 31.2339 87.6107 31.6999 87.6107 32.3097C87.6107 32.5201 87.6383 32.7305 87.6914 32.9431C87.7444 33.1557 87.8271 33.349 87.9417 33.5186C88.0562 33.6904 88.2005 33.8299 88.3787 33.9373C88.5569 34.0447 88.7669 34.0983 89.0088 34.0983C89.1806 34.0983 89.3419 34.0683 89.4904 34.006C89.6389 33.9437 89.7704 33.86 89.8807 33.7526C89.9932 33.6453 90.0801 33.5207 90.1438 33.379C90.1841 33.2888 90.2117 33.1944 90.2265 33.0956C90.2393 33.0075 90.1714 32.9302 90.0844 32.9302H89.2634C89.1849 32.9302 89.1212 32.8658 89.1212 32.7864V32.2195C89.1212 32.1401 89.1849 32.0756 89.2634 32.0756H91.0836C91.1621 32.0756 91.2257 32.1401 91.2257 32.2195V34.6781C91.2257 34.7575 91.1621 34.822 91.0836 34.822H90.4875C90.4111 34.822 90.3496 34.7618 90.3453 34.6845L90.3517 34.6867Z" fill="#010101"/>
</g>
<defs>
<clipPath id="clip0_113_1003">
<rect width="119" height="35" fill="white"/>
</clipPath>
</defs>
</svg>
